999
dxflib 3.3.4.0
  0
SECTION
  2
HEADER
  9
$ACADVER
  1
AC1015
  9
$HANDSEED
  5
FFFF
  9
$DIMADEC
 70
2
  9
$DIMASZ
 40
2.5
  9
$DIMAUNIT
 70
0
  9
$DIMAZIN
 70
0
  9
$DIMDEC
 70
1
  9
$DIMEXE
 40
1.25
  9
$DIMEXO
 40
0.625
  9
$DIMGAP
 40
0.625
  9
$DIMLUNIT
 70
2
  9
$DIMSCALE
 40
1.0
  9
$DIMTSZ
 40
0.0
  9
$DIMTXT
 40
2.5
  9
$DIMZIN
 70
0
  9
$DWGCODEPAGE
  3
ANSI_1252
  9
$INSUNITS
 70
4
  9
$LTSCALE
 40
1.0
  9
$PDMODE
 70
0
  9
$PDSIZE
 40
0.0
  0
ENDSEC
  0
SECTION
  2
TABLES
  0
TABLE
  2
VPORT
  5
8
100
AcDbSymbolTable
 70
1
  0
VPORT
  5
30
100
AcDbSymbolTableRecord
100
AcDbViewportTableRecord
  2
*Active
 70
0
 10
0.0
 20
0.0
 11
1.0
 21
1.0
 12
286.3055555555554861
 22
148.5
 13
0.0
 23
0.0
 14
10.0
 24
10.0
 15
10.0
 25
10.0
 16
0.0
 26
0.0
 36
1.0
 17
0.0
 27
0.0
 37
0.0
 40
297.0
 41
1.92798353909465
 42
50.0
 43
0.0
 44
0.0
 50
0.0
 51
0.0
 71
0
 72
100
 73
1
 74
3
 75
1
 76
1
 77
0
 78
0
281
0
 65
1
110
0.0
120
0.0
130
0.0
111
1.0
121
0.0
131
0.0
112
0.0
122
1.0
132
0.0
 79
0
146
0.0
  0
ENDTAB
  0
TABLE
  2
LTYPE
  5
5
100
AcDbSymbolTable
 70
21
  0
LTYPE
  5
16
100
AcDbSymbolTableRecord
100
AcDbLinetypeTableRecord
  2
CONTINUOUS
 70
0
  3
Solid line
 72
65
 73
0
 40
0.0
  0
LTYPE
  5
31
100
AcDbSymbolTableRecord
100
AcDbLinetypeTableRecord
  2
CENTER2
 70
0
  3
Center (.5x) ___ _ ___ _ ___ _ ___ _ ___ _ ___
 72
65
 73
4
 40
28.5749999999999993
 49
19.0500000000000007
 74
0
 49
-3.1749999999999998
 74
0
 49
3.1749999999999998
 74
0
 49
-3.1749999999999998
 74
0
  0
LTYPE
  5
32
100
AcDbSymbolTableRecord
100
AcDbLinetypeTableRecord
  2
DIVIDEX2
 70
0
  3
Divide (2x) ________  .  .  ________  .  .  _
 72
65
 73
6
 40
63.5
 49
25.3999999999999986
 74
0
 49
-12.6999999999999993
 74
0
 49
0.0
 74
0
 49
-12.6999999999999993
 74
0
 49
0.0
 74
0
 49
-12.6999999999999993
 74
0
  0
LTYPE
  5
33
100
AcDbSymbolTableRecord
100
AcDbLinetypeTableRecord
  2
DOT2
 70
0
  3
Dot (.5x) .....................................
 72
65
 73
2
 40
3.1749999999999998
 49
0.0
 74
0
 49
-3.1749999999999998
 74
0
  0
LTYPE
  5
34
100
AcDbSymbolTableRecord
100
AcDbLinetypeTableRecord
  2
DASHDOT2
 70
0
  3
Dash dot (.5x) _._._._._._._._._._._._._._._.
 72
65
 73
4
 40
12.6999999999999993
 49
6.3499999999999996
 74
0
 49
-3.1749999999999998
 74
0
 49
0.0
 74
0
 49
-3.1749999999999998
 74
0
  0
LTYPE
  5
35
100
AcDbSymbolTableRecord
100
AcDbLinetypeTableRecord
  2
DIVIDE
 70
0
  3
Divide ____ . . ____ . . ____ . . ____ . . ____
 72
65
 73
6
 40
31.75
 49
12.6999999999999993
 74
0
 49
-6.3499999999999996
 74
0
 49
0.0
 74
0
 49
-6.3499999999999996
 74
0
 49
0.0
 74
0
 49
-6.3499999999999996
 74
0
  0
LTYPE
  5
36
100
AcDbSymbolTableRecord
100
AcDbLinetypeTableRecord
  2
DASHDOT
 70
0
  3
Dash dot __ . __ . __ . __ . __ . __ . __ . __
 72
65
 73
4
 40
25.3999999999999986
 49
12.6999999999999993
 74
0
 49
-6.3499999999999996
 74
0
 49
0.0
 74
0
 49
-6.3499999999999996
 74
0
  0
LTYPE
  5
37
100
AcDbSymbolTableRecord
100
AcDbLinetypeTableRecord
  2
BORDER
 70
0
  3
Border __ __ . __ __ . __ __ . __ __ . __ __ .
 72
65
 73
6
 40
44.4500000000000028
 49
12.6999999999999993
 74
0
 49
-6.3499999999999996
 74
0
 49
12.6999999999999993
 74
0
 49
-6.3499999999999996
 74
0
 49
0.0
 74
0
 49
-6.3499999999999996
 74
0
  0
LTYPE
  5
38
100
AcDbSymbolTableRecord
100
AcDbLinetypeTableRecord
  2
DASHDOTX2
 70
0
  3
Dash dot (2x) ____  .  ____  .  ____  .  ___
 72
65
 73
4
 40
50.7999999999999972
 49
25.3999999999999986
 74
0
 49
-12.6999999999999993
 74
0
 49
0.0
 74
0
 49
-12.6999999999999993
 74
0
  0
LTYPE
  5
39
100
AcDbSymbolTableRecord
100
AcDbLinetypeTableRecord
  2
CENTERX2
 70
0
  3
Center (2x) ________  __  ________  __  _____
 72
65
 73
4
 40
101.5999999999999943
 49
63.5
 74
0
 49
-12.6999999999999993
 74
0
 49
12.6999999999999993
 74
0
 49
-12.6999999999999993
 74
0
  0
LTYPE
  5
3A
100
AcDbSymbolTableRecord
100
AcDbLinetypeTableRecord
  2
BORDER2
 70
0
  3
Border (.5x) __.__.__.__.__.__.__.__.__.__.__.
 72
65
 73
6
 40
22.2250000000000014
 49
6.3499999999999996
 74
0
 49
-3.1749999999999998
 74
0
 49
6.3499999999999996
 74
0
 49
-3.1749999999999998
 74
0
 49
0.0
 74
0
 49
-3.1749999999999998
 74
0
  0
LTYPE
  5
3B
100
AcDbSymbolTableRecord
100
AcDbLinetypeTableRecord
  2
BORDERX2
 70
0
  3
Border (2x) ____  ____  .  ____  ____  .  ___
 72
65
 73
6
 40
88.9000000000000057
 49
25.3999999999999986
 74
0
 49
-12.6999999999999993
 74
0
 49
25.3999999999999986
 74
0
 49
-12.6999999999999993
 74
0
 49
0.0
 74
0
 49
-12.6999999999999993
 74
0
  0
LTYPE
  5
14
100
AcDbSymbolTableRecord
100
AcDbLinetypeTableRecord
  2
BYBLOCK
 70
0
  3

 72
65
 73
0
 40
0.0
  0
LTYPE
  5
15
100
AcDbSymbolTableRecord
100
AcDbLinetypeTableRecord
  2
BYLAYER
 70
0
  3

 72
65
 73
0
 40
0.0
  0
LTYPE
  5
3C
100
AcDbSymbolTableRecord
100
AcDbLinetypeTableRecord
  2
DASHED2
 70
0
  3
Dashed (.5x) _ _ _ _ _ _ _ _ _ _ _ _ _ _ _ _ _
 72
65
 73
2
 40
9.5250000000000004
 49
6.3499999999999996
 74
0
 49
-3.1749999999999998
 74
0
  0
LTYPE
  5
3D
100
AcDbSymbolTableRecord
100
AcDbLinetypeTableRecord
  2
CENTER
 70
0
  3
Center ____ _ ____ _ ____ _ ____ _ ____ _ ____
 72
65
 73
4
 40
50.7999999999999972
 49
31.75
 74
0
 49
-6.3499999999999996
 74
0
 49
6.3499999999999996
 74
0
 49
-6.3499999999999996
 74
0
  0
LTYPE
  5
3E
100
AcDbSymbolTableRecord
100
AcDbLinetypeTableRecord
  2
DIVIDE2
 70
0
  3
Divide (.5x) __..__..__..__..__..__..__..__.._
 72
65
 73
6
 40
15.875
 49
6.3499999999999996
 74
0
 49
-3.1749999999999998
 74
0
 49
0.0
 74
0
 49
-3.1749999999999998
 74
0
 49
0.0
 74
0
 49
-3.1749999999999998
 74
0
  0
LTYPE
  5
3F
100
AcDbSymbolTableRecord
100
AcDbLinetypeTableRecord
  2
DASHED
 70
0
  3
Dashed __ __ __ __ __ __ __ __ __ __ __ __ __ _
 72
65
 73
2
 40
19.0500000000000007
 49
12.6999999999999993
 74
0
 49
-6.3499999999999996
 74
0
  0
LTYPE
  5
40
100
AcDbSymbolTableRecord
100
AcDbLinetypeTableRecord
  2
DOTX2
 70
0
  3
Dot (2x) .  .  .  .  .  .  .  .  .  .  .  .  .
 72
65
 73
2
 40
12.6999999999999993
 49
0.0
 74
0
 49
-12.6999999999999993
 74
0
  0
LTYPE
  5
41
100
AcDbSymbolTableRecord
100
AcDbLinetypeTableRecord
  2
DASHEDX2
 70
0
  3
Dashed (2x) ____  ____  ____  ____  ____  ___
 72
65
 73
2
 40
38.1000000000000014
 49
25.3999999999999986
 74
0
 49
-12.6999999999999993
 74
0
  0
LTYPE
  5
42
100
AcDbSymbolTableRecord
100
AcDbLinetypeTableRecord
  2
DOT
 70
0
  3
Dot . . . . . . . . . . . . . . . . . . . . . .
 72
65
 73
2
 40
6.3499999999999996
 49
0.0
 74
0
 49
-6.3499999999999996
 74
0
  0
ENDTAB
  0
TABLE
  2
LAYER
  5
2
100
AcDbSymbolTable
 70
3
  0
LAYER
  5
43
100
AcDbSymbolTableRecord
100
AcDbLayerTableRecord
  2
dim
 70
0
 62
47
420
4210238
  6
DASHED2
370
25
390
F
  0
LAYER
  5
44
100
AcDbSymbolTableRecord
100
AcDbLayerTableRecord
  2
hidden
 70
0
 62
49
420
2105376
  6
CONTINUOUS
370
25
390
F
  0
LAYER
  5
10
100
AcDbSymbolTableRecord
100
AcDbLayerTableRecord
  2
0
 70
0
 62
7
420
0
  6
CONTINUOUS
370
35
390
F
  0
ENDTAB
  0
TABLE
  2
STYLE
  5
3
100
AcDbSymbolTable
 70
5
  0
STYLE
  5
45
100
AcDbSymbolTableRecord
100
AcDbTextStyleTableRecord
  2
Standard
 70
0
 40
0.0
 41
1.0
 50
0.0
 71
0
 42
2.5
  3

  4

1001
ACAD
1000
txt
1071
0
  0
STYLE
  5
46
100
AcDbSymbolTableRecord
100
AcDbTextStyleTableRecord
  2
textstyle0
 70
0
 40
0.0
 41
1.0
 50
0.0
 71
0
 42
1.0
  3

  4

1001
ACAD
1000
Liberation Sans
1071
0
  0
STYLE
  5
47
100
AcDbSymbolTableRecord
100
AcDbTextStyleTableRecord
  2
textstyle1
 70
0
 40
0.0
 41
1.0
 50
0.0
 71
0
 42
1.0
  3

  4

1001
ACAD
1000
Liberation Sans
1071
0
  0
STYLE
  5
48
100
AcDbSymbolTableRecord
100
AcDbTextStyleTableRecord
  2
textstyle2
 70
0
 40
0.0
 41
1.0
 50
0.0
 71
0
 42
1.0
  3

  4

1001
ACAD
1000
Liberation Sans
1071
0
  0
STYLE
  5
49
100
AcDbSymbolTableRecord
100
AcDbTextStyleTableRecord
  2
textstyle3
 70
0
 40
0.0
 41
1.0
 50
0.0
 71
0
 42
1.0
  3

  4

1001
ACAD
1000
Liberation Sans
1071
0
  0
ENDTAB
  0
TABLE
  2
VIEW
  5
6
100
AcDbSymbolTable
 70
0
  0
ENDTAB
  0
TABLE
  2
UCS
  5
7
100
AcDbSymbolTable
 70
0
  0
ENDTAB
  0
TABLE
  2
APPID
  5
9
100
AcDbSymbolTable
 70
1
  0
APPID
  5
12
100
AcDbSymbolTableRecord
100
AcDbRegAppTableRecord
  2
ACAD
 70
0
  0
APPID
  5
4A
100
AcDbSymbolTableRecord
100
AcDbRegAppTableRecord
  2
QCAD
 70
0
  0
ENDTAB
  0
TABLE
  2
DIMSTYLE
  5
A
100
AcDbSymbolTable
 70
1
100
AcDbDimStyleTable
 71
0
  0
DIMSTYLE
105
27
100
AcDbSymbolTableRecord
100
AcDbDimStyleTableRecord
  2
Standard
 41
2.5
 42
0.625
 43
3.75
 44
1.25
 70
0
 73
0
 74
0
 77
1
 78
8
140
2.5
141
2.5
143
0.03937007874016
147
0.625
171
3
172
1
271
2
272
2
274
3
278
44
283
0
284
8
340
45
  0
ENDTAB
  0
TABLE
  2
BLOCK_RECORD
  5
1
100
AcDbSymbolTable
 70
1
  0
BLOCK_RECORD
  5
1F
100
AcDbSymbolTableRecord
100
AcDbBlockTableRecord
  2
*Model_Space
340
22
  0
BLOCK_RECORD
  5
1B
100
AcDbSymbolTableRecord
100
AcDbBlockTableRecord
  2
*Paper_Space
340
1E
  0
BLOCK_RECORD
  5
23
100
AcDbSymbolTableRecord
100
AcDbBlockTableRecord
  2
*Paper_Space0
340
26
  0
BLOCK_RECORD
  5
4B
100
AcDbSymbolTableRecord
100
AcDbBlockTableRecord
  2
Lid 2
340
0
  0
ENDTAB
  0
ENDSEC
  0
SECTION
  2
BLOCKS
  0
BLOCK
  5
20
100
AcDbEntity
  8
0
100
AcDbBlockBegin
  2
*Model_Space
 70
0
 10
0.0
 20
0.0
 30
0.0
  3
*Model_Space
  1

  0
ENDBLK
  5
21
100
AcDbEntity
  8
0
100
AcDbBlockEnd
  0
BLOCK
  5
1C
100
AcDbEntity
 67
1
  8
0
100
AcDbBlockBegin
  2
*Paper_Space
 70
0
 10
0.0
 20
0.0
 30
0.0
  3
*Paper_Space
  1

  0
ENDBLK
  5
1D
100
AcDbEntity
 67
1
  8
0
100
AcDbBlockEnd
  0
BLOCK
  5
24
100
AcDbEntity
  8
0
100
AcDbBlockBegin
  2
*Paper_Space0
 70
0
 10
0.0
 20
0.0
 30
0.0
  3
*Paper_Space0
  1

  0
ENDBLK
  5
25
100
AcDbEntity
  8
0
100
AcDbBlockEnd
  0
BLOCK
  5
4C
100
AcDbEntity
  8
0
100
AcDbBlockBegin
  2
Lid 2
 70
0
 10
0.0
 20
0.0
 30
0.0
  3
Lid 2
  1

  0
LINE
  5
4D
100
AcDbEntity
100
AcDbLine
  8
0
 62
256
370
-1
  6
BYLAYER
 10
-85.1622635883997816
 20
18.1173313885122695
 30
0.0
 11
-65.1622635883997816
 21
18.1173313885122695
 31
0.0
  0
LINE
  5
4E
100
AcDbEntity
100
AcDbLine
  8
0
 62
256
370
-1
  6
BYLAYER
 10
-105.1622635883997816
 20
54.1173313885122695
 30
0.0
 11
-105.1622635883997816
 21
18.1173313885122695
 31
0.0
  0
LINE
  5
4F
100
AcDbEntity
100
AcDbLine
  8
0
 62
256
370
-1
  6
BYLAYER
 10
-105.1622635883997816
 20
18.1173313885122695
 30
0.0
 11
-85.1622635883997816
 21
18.1173313885122695
 31
0.0
  0
ARC
  5
50
100
AcDbEntity
  8
0
 62
256
370
-1
  6
BYLAYER
100
AcDbCircle
 10
-66.5063049504866228
 20
53.3563481003622258
 30
0.0
 40
1.3440413620868208
100
AcDbArc
 50
229.0815247454193866
 51
253.29688776863469
  0
LINE
  5
51
100
AcDbEntity
100
AcDbLine
  8
0
 62
256
370
-1
  6
BYLAYER
 10
-65.1622635883997816
 20
51.1173313885122695
 30
0.0
 11
-65.1622635883997816
 21
54.1173313885122695
 31
0.0
  0
LINE
  5
52
100
AcDbEntity
100
AcDbLine
  8
0
 62
256
370
-1
  6
BYLAYER
 10
-65.1622635883997816
 20
18.8783146766623133
 30
0.0
 11
-65.1622635883997816
 21
31.1173313885122695
 31
0.0
  0
LINE
  5
53
100
AcDbEntity
100
AcDbLine
  8
0
 62
256
370
-1
  6
BYLAYER
 10
-103.1622635883997816
 20
30.1173313885122695
 30
0.0
 11
-101.1622635883997816
 21
30.1173313885122695
 31
0.0
  0
LINE
  5
54
100
AcDbEntity
100
AcDbLine
  8
0
 62
256
370
-1
  6
BYLAYER
 10
-103.1622635883997816
 20
30.1173313885122695
 30
0.0
 11
-103.1622635883997816
 21
18.1173313885122695
 31
0.0
  0
ARC
  5
55
100
AcDbEntity
  8
0
 62
256
370
-1
  6
BYLAYER
100
AcDbCircle
 10
-85.1622635883997816
 20
52.1173313885122695
 30
0.0
 40
8.7621590867664771
100
AcDbArc
 50
61.189206257026953
 51
241.1892062570269673
  0
LINE
  5
56
100
AcDbEntity
100
AcDbLine
  8
0
 62
256
370
-1
  6
BYLAYER
 10
-80.9396148360005441
 20
59.7948745746926704
 30
0.0
 11
-65.1622635883997816
 21
51.1173313885122695
 31
0.0
  0
LINE
  5
57
100
AcDbEntity
100
AcDbLine
  8
0
 62
256
370
-1
  6
BYLAYER
 10
-65.1622635883997816
 20
31.1173313885122695
 30
0.0
 11
-89.3849123407990191
 21
44.4397882023318687
 31
0.0
  0
LINE
  5
58
100
AcDbEntity
100
AcDbLine
  8
0
 62
256
370
-1
  6
BYLAYER
 10
-87.187821446418269
 20
64.0032745666021299
 30
0.0
 11
-105.1622635883997816
 21
54.1173313885122695
 31
0.0
  0
LINE
  5
59
100
AcDbEntity
100
AcDbLine
  8
0
 62
256
370
-1
  6
BYLAYER
 10
-83.1367057303812942
 20
64.003274566602073
 30
0.0
 11
-65.1622635883997816
 21
54.1173313885122695
 31
0.0
  0
ARC
  5
5A
100
AcDbEntity
  8
0
 62
256
370
-1
  6
BYLAYER
100
AcDbCircle
 10
-85.1622635883997816
 20
52.1173313885122695
 30
0.0
 40
11.4017542509913845
100
AcDbArc
 50
58.6782288885781682
 51
63.7001836254756384
  0
ARC
  5
5B
100
AcDbEntity
  8
0
 62
256
370
-1
  6
BYLAYER
100
AcDbCircle
 10
-85.1622635883997816
 20
60.3204420974775246
 30
0.0
 40
4.2031107089652693
100
AcDbArc
 50
61.1892062570269601
 51
118.8107937429730612
  0
ARC
  5
5C
100
AcDbEntity
  8
0
 62
256
370
-1
  6
BYLAYER
100
AcDbCircle
 10
-85.1622635883997816
 20
52.1173313885122695
 30
0.0
 40
11.4017542509913845
100
AcDbArc
 50
116.2998163745247098
 51
121.3217711114214268
  0
LINE
  5
5D
100
AcDbEntity
100
AcDbLine
  8
0
 62
256
370
-1
  6
BYLAYER
 10
-101.1622635883997816
 20
30.1173313885122695
 30
0.0
 11
-101.1622635883997816
 21
53.3173313885122582
 31
0.0
  0
LINE
  5
5E
100
AcDbEntity
100
AcDbLine
  8
0
 62
256
370
-1
  6
BYLAYER
 10
-67.1622635883997816
 20
30.1173313885122695
 30
0.0
 11
-67.1622635883997816
 21
18.1173313885122695
 31
0.0
  0
LINE
  5
5F
100
AcDbEntity
100
AcDbLine
  8
0
 62
256
370
-1
  6
BYLAYER
 10
-67.1622635883997816
 20
30.1173313885122695
 30
0.0
 11
-69.1622635883997816
 21
30.1173313885122695
 31
0.0
  0
LINE
  5
60
100
AcDbEntity
100
AcDbLine
  8
0
 62
256
370
-1
  6
BYLAYER
 10
-90.6622635883997816
 20
34.1173313885122695
 30
0.0
 11
-79.6622635883997816
 21
34.1173313885122695
 31
0.0
  0
LINE
  5
61
100
AcDbEntity
100
AcDbLine
  8
0
 62
256
370
-1
  6
BYLAYER
 10
-79.6622635883997816
 20
34.1173313885122695
 30
0.0
 11
-79.6622635883997816
 21
36.3432710742443135
 31
0.0
  0
LINE
  5
62
100
AcDbEntity
100
AcDbLine
  8
0
 62
256
370
-1
  6
BYLAYER
 10
-86.1622635883997816
 20
34.1173313885122695
 30
0.0
 11
-86.1622635883997816
 21
39.9182710742443021
 31
0.0
  0
LINE
  5
63
100
AcDbEntity
100
AcDbLine
  8
0
 62
256
370
-1
  6
BYLAYER
 10
-84.1622635883997816
 20
34.1173313885122695
 30
0.0
 11
-84.1622635883997816
 21
38.8182710742443078
 31
0.0
  0
LINE
  5
64
100
AcDbEntity
100
AcDbLine
  8
0
 62
256
370
-1
  6
BYLAYER
 10
-90.6622635883997816
 20
42.3932710742443248
 30
0.0
 11
-90.6622635883997816
 21
34.1173313885122695
 31
0.0
  0
ARC
  5
65
100
AcDbEntity
  8
0
 62
256
370
-1
  6
BYLAYER
100
AcDbCircle
 10
-85.1622635883997816
 20
52.1173313885122695
 30
0.0
 40
11.1709294680396738
100
AcDbArc
 50
157.1482035644637278
 51
241.1892062570269673
  0
LINE
  5
66
100
AcDbEntity
100
AcDbLine
  8
0
 62
256
370
-1
  6
BYLAYER
 10
-95.4564142130803361
 20
56.4555485449379546
 30
0.0
 11
-101.1622635883997816
 21
53.3173313885122582
 31
0.0
  0
LINE
  5
67
100
AcDbEntity
100
AcDbLine
  8
0
 62
256
370
-1
  6
BYLAYER
 10
-69.1622635883997816
 20
30.1173313885122695
 30
0.0
 11
-69.1622635883997816
 21
30.5682710742443078
 31
0.0
  0
LINE
  5
68
100
AcDbEntity
100
AcDbLine
  8
0
 62
256
370
-1
  6
BYLAYER
 10
-69.1622635883997816
 20
30.5682710742443078
 30
0.0
 11
-90.6622635883997816
 21
42.3932710742443248
 31
0.0
  0
LINE
  5
69
100
AcDbEntity
100
AcDbLine
  8
0
 62
256
370
-1
  6
BYLAYER
 10
-65.1622635883997816
 20
18.8783146766623133
 30
0.0
 11
-65.1622635883997816
 21
18.1173313885122695
 31
0.0
  0
DIMENSION
  5
6A
100
AcDbEntity
  8
dim
 62
256
370
-1
  6
BYLAYER
100
AcDbDimension
 10
-85.1622635883997816
 20
52.1173313885122695
 30
0.0
 11
-98.3861317798493928
 21
61.530342433280822
 31
0.0
 70
132
 71
8
 72
2
 41
1.0
 42
0.0
  1

  3
Standard
100
AcDbRadialDimension
 15
-92.8398067745802109
 25
56.3399801409114787
 35
0.0
 40
0.0
1001
ACAD
1000
DSTYLE
1002
{
1070
144
1040
1
1002
}
  0
DIMENSION
  5
6B
100
AcDbEntity
  8
dim
 62
256
370
-1
  6
BYLAYER
100
AcDbDimension
 10
-61.1622635883997816
 20
24.1173313885122695
 30
0.0
 11
-63.0372635883997816
 21
24.6173313885122695
 31
0.0
 70
128
 71
8
 72
2
 41
1.0
 42
0.0
  1

  3
Standard
100
AcDbAlignedDimension
 13
-65.1622635883997816
 23
18.1173313885122695
 33
0.0
 14
-65.1622635883997816
 24
31.1173313885122695
 34
0.0
 50
90.0
100
AcDbRotatedDimension
1001
ACAD
1000
DSTYLE
1002
{
1070
144
1040
1
1002
}
  0
DIMENSION
  5
6C
100
AcDbEntity
  8
dim
 62
256
370
-1
  6
BYLAYER
100
AcDbDimension
 10
-71.1622635883997816
 20
20.1173313885122695
 30
0.0
 11
-73.0372635883997816
 21
24.1173313885122695
 31
0.0
 70
128
 71
8
 72
2
 41
1.0
 42
0.0
  1

  3
Standard
100
AcDbAlignedDimension
 13
-69.1622635883997816
 23
30.1173313885122695
 33
0.0
 14
-69.1622635883997816
 24
18.1173313885122695
 34
0.0
 50
90.0
100
AcDbRotatedDimension
1001
ACAD
1000
DSTYLE
1002
{
1070
144
1040
1
1002
}
  0
DIMENSION
  5
6D
100
AcDbEntity
  8
dim
 62
256
370
-1
  6
BYLAYER
100
AcDbDimension
 10
-61.1622635883997816
 20
54.1173313885122695
 30
0.0
 11
-63.0372635883997816
 21
52.6173313885122695
 31
0.0
 70
128
 71
8
 72
2
 41
1.0
 42
0.0
  1

  3
Standard
100
AcDbAlignedDimension
 13
-65.1622635883997816
 23
51.1173313885122695
 33
0.0
 14
-65.1622635883997816
 24
54.1173313885122695
 34
0.0
 50
90.0
100
AcDbRotatedDimension
1001
ACAD
1000
DSTYLE
1002
{
1070
144
1040
1
1002
}
  0
DIMENSION
  5
6E
100
AcDbEntity
  8
dim
 62
256
370
-1
  6
BYLAYER
100
AcDbDimension
 10
-61.1622635883997816
 20
34.1173313885122695
 30
0.0
 11
-63.0372635883997816
 21
41.1173313885122695
 31
0.0
 70
128
 71
8
 72
2
 41
1.0
 42
0.0
  1

  3
Standard
100
AcDbAlignedDimension
 13
-65.1622635883997816
 23
51.1173313885122695
 33
0.0
 14
-65.1622635883997816
 24
31.1173313885122695
 34
0.0
 50
90.0
100
AcDbRotatedDimension
1001
ACAD
1000
DSTYLE
1002
{
1070
144
1040
1
1002
}
  0
DIMENSION
  5
6F
100
AcDbEntity
  8
dim
 62
256
370
-1
  6
BYLAYER
100
AcDbDimension
 10
-77.1622635883997816
 20
39.1173313885122695
 30
0.0
 11
-79.0372635883997816
 21
40.6173313885122695
 31
0.0
 70
128
 71
8
 72
2
 41
1.0
 42
0.0
  1

  3
Standard
100
AcDbAlignedDimension
 13
-85.1622635883997816
 23
42.1173313885122695
 33
0.0
 14
-85.1622635883997816
 24
39.1173313885122695
 34
0.0
 50
90.0
100
AcDbRotatedDimension
1001
ACAD
1000
DSTYLE
1002
{
1070
144
1040
1
1002
}
  0
DIMENSION
  5
70
100
AcDbEntity
  8
dim
 62
256
370
-1
  6
BYLAYER
100
AcDbDimension
 10
-107.7277368410539111
 20
19.9263000569287101
 30
0.0
 11
-109.6027368410539111
 21
36.1173313885122695
 31
0.0
 70
128
 71
8
 72
2
 41
1.0
 42
0.0
  1

  3
Standard
100
AcDbAlignedDimension
 13
-105.1622635883997816
 23
54.1173313885122695
 33
0.0
 14
-105.1622635883997816
 24
18.1173313885122695
 34
0.0
 50
90.0
100
AcDbRotatedDimension
1001
ACAD
1000
DSTYLE
1002
{
1070
144
1040
1
1002
}
  0
DIMENSION
  5
71
100
AcDbEntity
  8
dim
 62
256
370
-1
  6
BYLAYER
100
AcDbDimension
 10
-55.1622635883997816
 20
28.1173313885122695
 30
0.0
 11
-57.0372635883997816
 21
41.6173313885122695
 31
0.0
 70
128
 71
8
 72
2
 41
1.0
 42
0.0
  1

  3
Standard
100
AcDbAlignedDimension
 13
-85.1622635883997816
 23
65.1173313885122695
 33
0.0
 14
-85.1622635883997816
 24
18.1173313885122695
 34
0.0
 50
90.0
100
AcDbRotatedDimension
1001
ACAD
1000
DSTYLE
1002
{
1070
144
1040
1
1002
}
  0
DIMENSION
  5
72
100
AcDbEntity
  8
dim
 62
256
370
-1
  6
BYLAYER
100
AcDbDimension
 10
-103.1622635883997816
 20
30.1173313885122695
 30
0.0
 11
-98.3397842271647846
 21
37.8223693467360818
 31
0.0
 70
130
 71
8
 72
2
 41
1.0
 42
0.0
  1

  3
Standard
100
AcDb2LineAngularDimension
 13
-89.9981090085074982
 23
42.0279860553035576
 33
0.0
 14
-84.7479788640490881
 24
39.1404144758514292
 34
0.0
 15
-101.1622635883997816
 25
30.1173313885122695
 35
0.0
 16
-97.1622635883997816
 26
34.1173313885122695
 36
0.0
  0
CIRCLE
  5
73
100
AcDbEntity
100
AcDbCircle
  8
0
 62
256
370
-1
  6
BYLAYER
 10
-85.1622635883997816
 20
-11.8826686114877305
 30
0.0
 40
20.0
  0
CIRCLE
  5
74
100
AcDbEntity
100
AcDbCircle
  8
0
 62
256
370
-1
  6
BYLAYER
 10
-85.1622635883997816
 20
-11.8826686114877305
 30
0.0
 40
18.0
  0
CIRCLE
  5
75
100
AcDbEntity
100
AcDbCircle
  8
0
 62
256
370
-1
  6
BYLAYER
 10
-85.1622635883997816
 20
-11.8826686114877305
 30
0.0
 40
16.0
  0
LINE
  5
76
100
AcDbEntity
100
AcDbLine
  8
0
 62
256
370
-1
  6
BYLAYER
 10
-84.1622635883997816
 20
-6.3826686114877305
 30
0.0
 11
-84.1622635883997816
 21
-17.3826686114877305
 31
0.0
  0
LINE
  5
77
100
AcDbEntity
100
AcDbLine
  8
0
 62
256
370
-1
  6
BYLAYER
 10
-84.1622635883997816
 20
-17.3826686114877305
 30
0.0
 11
-86.1622635883997816
 21
-17.3826686114877305
 31
0.0
  0
LINE
  5
78
100
AcDbEntity
100
AcDbLine
  8
0
 62
256
370
-1
  6
BYLAYER
 10
-86.1622635883997816
 20
-17.3826686114877305
 30
0.0
 11
-86.1622635883997816
 21
-6.3826686114877305
 31
0.0
  0
LINE
  5
79
100
AcDbEntity
100
AcDbLine
  8
0
 62
256
370
-1
  6
BYLAYER
 10
-86.1622635883997816
 20
-6.3826686114877305
 30
0.0
 11
-84.1622635883997816
 21
-6.3826686114877305
 31
0.0
  0
LINE
  5
7A
100
AcDbEntity
100
AcDbLine
  8
0
 62
256
370
-1
  6
BYLAYER
 10
-79.6622635883997816
 20
-10.8826686114877305
 30
0.0
 11
-79.6622635883997816
 21
-12.8826686114877305
 31
0.0
  0
LINE
  5
7B
100
AcDbEntity
100
AcDbLine
  8
0
 62
256
370
-1
  6
BYLAYER
 10
-79.6622635883997816
 20
-12.8826686114877305
 30
0.0
 11
-90.6622635883997816
 21
-12.8826686114877305
 31
0.0
  0
LINE
  5
7C
100
AcDbEntity
100
AcDbLine
  8
0
 62
256
370
-1
  6
BYLAYER
 10
-90.6622635883997816
 20
-12.8826686114877305
 30
0.0
 11
-90.6622635883997816
 21
-10.8826686114877305
 31
0.0
  0
LINE
  5
7D
100
AcDbEntity
100
AcDbLine
  8
0
 62
256
370
-1
  6
BYLAYER
 10
-90.6622635883997816
 20
-10.8826686114877305
 30
0.0
 11
-79.6622635883997816
 21
-10.8826686114877305
 31
0.0
  0
LEADER
  5
7E
  8
dim
 62
256
370
-1
  6
BYLAYER
100
AcDbEntity
100
AcDbLeader
  3
Standard
 71
0
 72
0
 73
3
 74
0
 75
0
 40
1.0
 41
10.0
 76
2
 10
-90.6622635883997816
 20
34.1173313885122695
 10
-90.6622635883997816
 20
-10.8826686114877305
  0
LEADER
  5
7F
  8
dim
 62
256
370
-1
  6
BYLAYER
100
AcDbEntity
100
AcDbLeader
  3
Standard
 71
0
 72
0
 73
3
 74
0
 75
0
 40
1.0
 41
10.0
 76
2
 10
-86.1622635883997816
 20
-6.3826686114877305
 10
-86.1622635883997816
 20
34.1173313885122695
  0
LEADER
  5
80
  8
dim
 62
256
370
-1
  6
BYLAYER
100
AcDbEntity
100
AcDbLeader
  3
Standard
 71
0
 72
0
 73
3
 74
0
 75
0
 40
1.0
 41
10.0
 76
2
 10
-84.1622635883997816
 20
34.1173313885122695
 10
-84.1622635883997816
 20
-6.3826686114877305
  0
LEADER
  5
81
  8
dim
 62
256
370
-1
  6
BYLAYER
100
AcDbEntity
100
AcDbLeader
  3
Standard
 71
0
 72
0
 73
3
 74
0
 75
0
 40
1.0
 41
10.0
 76
2
 10
-79.6622635883997816
 20
34.1173313885122695
 10
-79.6622635883997816
 20
-10.8826686114877305
  0
LEADER
  5
82
  8
dim
 62
256
370
-1
  6
BYLAYER
100
AcDbEntity
100
AcDbLeader
  3
Standard
 71
0
 72
0
 73
3
 74
0
 75
0
 40
1.0
 41
10.0
 76
2
 10
-105.1622635883997816
 20
18.1173313885122695
 10
-105.1622635883997816
 20
-11.8826686114877305
  0
LEADER
  5
83
  8
dim
 62
256
370
-1
  6
BYLAYER
100
AcDbEntity
100
AcDbLeader
  3
Standard
 71
0
 72
0
 73
3
 74
0
 75
0
 40
1.0
 41
10.0
 76
2
 10
-103.1622635883997816
 20
-11.8826686114877305
 10
-103.1622635883997816
 20
18.1173313885122695
  0
LEADER
  5
84
  8
dim
 62
256
370
-1
  6
BYLAYER
100
AcDbEntity
100
AcDbLeader
  3
Standard
 71
0
 72
0
 73
3
 74
0
 75
0
 40
1.0
 41
10.0
 76
2
 10
-101.1622635883997816
 20
30.1173313885122695
 10
-101.1622635883997816
 20
-11.8826686114877305
  0
LINE
  5
85
100
AcDbEntity
100
AcDbLine
  8
0
 62
256
370
-1
  6
BYLAYER
 10
-96.3331688625948459
 20
-0.4279370408676186
 30
0.0
 11
-96.3331688625948459
 21
-23.3374001821078423
 31
0.0
  0
LEADER
  5
86
  8
dim
 62
256
370
-1
  6
BYLAYER
100
AcDbEntity
100
AcDbLeader
  3
Standard
 71
0
 72
0
 73
3
 74
0
 75
0
 40
1.0
 41
10.0
 76
2
 10
-96.3331930564394554
 20
52.1173313885122695
 10
-96.3331688625948459
 20
-0.4279370408676186
  0
DIMENSION
  5
87
100
AcDbEntity
  8
dim
 62
256
370
-1
  6
BYLAYER
100
AcDbDimension
 10
-84.1622635883997816
 20
-17.3826686114877305
 30
0.0
 11
-84.6622635883997816
 21
-15.5076686114877305
 31
0.0
 70
128
 71
8
 72
2
 41
1.0
 42
0.0
  1

  3
Standard
100
AcDbAlignedDimension
 13
-85.1622635883997816
 23
-11.8826686114877305
 33
0.0
 14
-84.1622635883997816
 24
-18.8826686114877305
 34
0.0
 50
0.0
100
AcDbRotatedDimension
1001
ACAD
1000
DSTYLE
1002
{
1070
144
1040
1
1002
}
  0
DIMENSION
  5
88
100
AcDbEntity
  8
dim
 62
256
370
-1
  6
BYLAYER
100
AcDbDimension
 10
-89.1622635883997816
 20
-21.8826686114877305
 30
0.0
 11
-87.9122635883997816
 21
-20.0076686114877305
 31
0.0
 70
128
 71
8
 72
2
 41
1.0
 42
0.0
  1

  3
Standard
100
AcDbAlignedDimension
 13
-85.1622635883997816
 23
-11.8826686114877305
 33
0.0
 14
-90.6622635883997816
 24
-11.8826686114877305
 34
0.0
 50
0.0
100
AcDbRotatedDimension
1001
ACAD
1000
DSTYLE
1002
{
1070
144
1040
1
1002
}
  0
DIMENSION
  5
89
100
AcDbEntity
  8
dim
 62
256
370
-1
  6
BYLAYER
100
AcDbDimension
 10
-71.1622635883997816
 20
-21.8826686114877305
 30
0.0
 11
-77.1622635883997816
 21
-20.0076686114877305
 31
0.0
 70
128
 71
8
 72
2
 41
1.0
 42
0.0
  1

  3
Standard
100
AcDbAlignedDimension
 13
-85.1622635883997816
 23
-12.5076686114877305
 33
0.0
 14
-69.1622635883997816
 24
-11.8826686114877305
 34
0.0
 50
0.0
100
AcDbRotatedDimension
1001
ACAD
1000
DSTYLE
1002
{
1070
144
1040
1
1002
}
  0
DIMENSION
  5
8A
100
AcDbEntity
  8
dim
 62
256
370
-1
  6
BYLAYER
100
AcDbDimension
 10
-92.0396044592247904
 20
-4.3773586498480199
 30
0.0
 11
-90.747716225497328
 21
-2.5023586498480199
 31
0.0
 70
128
 71
8
 72
2
 41
1.0
 42
0.0
  1

  3
Standard
100
AcDbAlignedDimension
 13
-85.1622635883997816
 23
-11.8826686114877305
 33
0.0
 14
-96.3331688625948459
 24
-0.4279370408676186
 34
0.0
 50
0.0
100
AcDbRotatedDimension
1001
ACAD
1000
DSTYLE
1002
{
1070
144
1040
1
1002
}
  0
DIMENSION
  5
8B
100
AcDbEntity
  8
dim
 62
256
370
-1
  6
BYLAYER
100
AcDbDimension
 10
-85.1622635883997816
 20
-4.3773586498480199
 30
0.0
 11
-76.1622635883997816
 21
-2.5023586498480199
 31
0.0
 70
128
 71
8
 72
2
 41
1.0
 42
0.0
  1

  3
Standard
100
AcDbAlignedDimension
 13
-85.1622635883997816
 23
-11.8826686114877305
 33
0.0
 14
-67.1622635883997816
 24
-11.8826686114877305
 34
0.0
 50
0.0
100
AcDbRotatedDimension
1001
ACAD
1000
DSTYLE
1002
{
1070
144
1040
1
1002
}
  0
DIMENSION
  5
8C
100
AcDbEntity
  8
dim
 62
256
370
-1
  6
BYLAYER
100
AcDbDimension
 10
-92.9385334210786311
 20
9.9015054212889879
 30
0.0
 11
-95.1622635883997816
 21
11.7765054212889879
 31
0.0
 70
128
 71
8
 72
2
 41
1.0
 42
0.0
  1

  3
Standard
100
AcDbAlignedDimension
 13
-85.1622635883997816
 23
-11.8826686114877305
 33
0.0
 14
-105.1622635883997816
 24
-11.8826686114877305
 34
0.0
 50
0.0
100
AcDbRotatedDimension
1001
ACAD
1000
DSTYLE
1002
{
1070
144
1040
1
1002
}
  0
DIMENSION
  5
8D
100
AcDbEntity
  8
dim
 62
256
370
-1
  6
BYLAYER
100
AcDbDimension
 10
-100.1622635883997816
 20
53.3173313885122582
 30
0.0
 11
-87.3017542003015308
 21
56.8774969987851762
 31
0.0
 70
130
 71
8
 72
2
 41
1.0
 42
0.0
  1

  3
Standard
100
AcDb2LineAngularDimension
 13
-95.4564142130803361
 23
56.4555485449379546
 33
0.0
 14
-101.1622635883997816
 24
53.3173313885122582
 34
0.0
 15
-101.1622635883997816
 25
53.3173313885122582
 35
0.0
 16
-90.1622635883997816
 26
59.1173313885122695
 36
0.0
  0
ENDBLK
  5
8E
100
AcDbEntity
  8
0
100
AcDbBlockEnd
  0
ENDSEC
  0
SECTION
  2
ENTITIES
  0
CIRCLE
  5
8F
100
AcDbEntity
100
AcDbCircle
  8
0
 62
256
370
-1
  6
BYLAYER
 10
130.16226358839981
 20
139.8826686114877305
 30
0.0
 40
5.0
  0
CIRCLE
  5
90
100
AcDbEntity
100
AcDbCircle
  8
0
 62
256
370
-1
  6
BYLAYER
 10
130.16226358839981
 20
139.8826686114877305
 30
0.0
 40
3.0
  0
CIRCLE
  5
91
100
AcDbEntity
100
AcDbCircle
  8
0
 62
256
370
-1
  6
BYLAYER
 10
130.16226358839981
 20
139.8826686114877305
 30
0.0
 40
5.0
  0
CIRCLE
  5
92
100
AcDbEntity
100
AcDbCircle
  8
0
 62
256
370
-1
  6
BYLAYER
 10
130.16226358839981
 20
139.8826686114877305
 30
0.0
 40
17.0
  0
CIRCLE
  5
93
100
AcDbEntity
100
AcDbCircle
  8
0
 62
256
370
-1
  6
BYLAYER
 10
130.16226358839981
 20
139.8826686114877305
 30
0.0
 40
18.0
  0
LINE
  5
94
100
AcDbEntity
100
AcDbLine
  8
0
 62
256
370
-1
  6
BYLAYER
 10
141.5846773815032407
 20
144.9599181758798636
 30
0.0
 11
143.41226358839981
 21
145.772278106182597
 31
0.0
  0
LINE
  5
95
100
AcDbEntity
100
AcDbLine
  8
0
 62
256
370
-1
  6
BYLAYER
 10
140.2915739332274256
 20
147.2070847614732543
 30
0.0
 11
141.91226358839981
 21
148.3789913454709506
 31
0.0
  0
LINE
  5
96
100
AcDbEntity
100
AcDbLine
  8
0
 62
256
370
-1
  6
BYLAYER
 10
118.41226358839981
 20
148.3789913454709506
 30
0.0
 11
120.0329532435722228
 21
147.2070847614732543
 31
0.0
  0
LINE
  5
97
100
AcDbEntity
100
AcDbLine
  8
0
 62
256
370
-1
  6
BYLAYER
 10
116.91226358839981
 20
145.772278106182597
 30
0.0
 11
118.7398497952963794
 21
144.9599181758798636
 31
0.0
  0
LINE
  5
98
100
AcDbEntity
100
AcDbLine
  8
0
 62
256
370
-1
  6
BYLAYER
 10
116.91226358839981
 20
133.993059116792864
 30
0.0
 11
118.7398497952963794
 21
134.8054190470955973
 31
0.0
  0
LINE
  5
99
100
AcDbEntity
100
AcDbLine
  8
0
 62
256
370
-1
  6
BYLAYER
 10
118.41226358839981
 20
131.3863458775045103
 30
0.0
 11
120.0329532435722228
 21
132.5582524615022066
 31
0.0
  0
LINE
  5
9A
100
AcDbEntity
100
AcDbLine
  8
0
 62
256
370
-1
  6
BYLAYER
 10
140.2915739332273972
 20
132.5582524615022066
 30
0.0
 11
141.91226358839981
 21
131.3863458775045103
 31
0.0
  0
LINE
  5
9B
100
AcDbEntity
100
AcDbLine
  8
0
 62
256
370
-1
  6
BYLAYER
 10
141.5846773815032407
 20
134.8054190470955973
 30
0.0
 11
143.41226358839981
 21
133.993059116792864
 31
0.0
  0
ARC
  5
9C
100
AcDbEntity
  8
0
 62
256
370
-1
  6
BYLAYER
100
AcDbCircle
 10
130.16226358839981
 20
139.8826686114877305
 30
0.0
 40
14.5
100
AcDbArc
 50
156.0349090150127722
 51
203.9650909849872278
  0
ARC
  5
9D
100
AcDbEntity
  8
0
 62
256
370
-1
  6
BYLAYER
100
AcDbCircle
 10
130.16226358839981
 20
139.8826686114877305
 30
0.0
 40
12.5
100
AcDbArc
 50
156.0349090150127722
 51
203.9650909849872278
  0
ARC
  5
9E
100
AcDbEntity
  8
0
 62
256
370
-1
  6
BYLAYER
100
AcDbCircle
 10
130.16226358839981
 20
139.8826686114877305
 30
0.0
 40
12.5
100
AcDbArc
 50
35.8703643041851947
 51
144.1296356958148408
  0
ARC
  5
9F
100
AcDbEntity
  8
0
 62
256
370
-1
  6
BYLAYER
100
AcDbCircle
 10
130.16226358839981
 20
139.8826686114877305
 30
0.0
 40
14.5
100
AcDbArc
 50
35.8703643041851947
 51
144.1296356958148408
  0
ARC
  5
A0
100
AcDbEntity
  8
0
 62
256
370
-1
  6
BYLAYER
100
AcDbCircle
 10
130.16226358839981
 20
139.8826686114877305
 30
0.0
 40
12.5
100
AcDbArc
 50
215.8703643041851876
 51
324.1296356958148408
  0
ARC
  5
A1
100
AcDbEntity
  8
0
 62
256
370
-1
  6
BYLAYER
100
AcDbCircle
 10
130.16226358839981
 20
139.8826686114877305
 30
0.0
 40
12.5
100
AcDbArc
 50
336.0349090150127154
 51
23.9650909849872491
  0
ARC
  5
A2
100
AcDbEntity
  8
0
 62
256
370
-1
  6
BYLAYER
100
AcDbCircle
 10
130.16226358839981
 20
139.8826686114877305
 30
0.0
 40
14.5
100
AcDbArc
 50
215.8703643041851876
 51
324.129635695814784
  0
ARC
  5
A3
100
AcDbEntity
  8
0
 62
256
370
-1
  6
BYLAYER
100
AcDbCircle
 10
130.16226358839981
 20
139.8826686114877305
 30
0.0
 40
14.5
100
AcDbArc
 50
336.0349090150127154
 51
23.9650909849872491
  0
DIMENSION
  5
A4
100
AcDbEntity
  8
dim
 62
256
370
-1
  6
BYLAYER
100
AcDbDimension
 10
127.16226358839981
 20
130.8826686114877305
 30
0.0
 11
128.66226358839981
 21
132.7576686114877305
 31
0.0
 70
128
 71
8
 72
2
 41
1.0
 42
0.0
  1

  3
Standard
100
AcDbAlignedDimension
 13
130.16226358839981
 23
139.8826686114877305
 33
0.0
 14
127.16226358839981
 24
139.8826686114877305
 34
0.0
 50
0.0
100
AcDbRotatedDimension
1001
ACAD
1000
DSTYLE
1002
{
1070
144
1040
1
1002
}
  0
DIMENSION
  5
A5
100
AcDbEntity
  8
dim
 62
256
370
-1
  6
BYLAYER
100
AcDbDimension
 10
135.16226358839981
 20
130.8826686114877305
 30
0.0
 11
132.66226358839981
 21
132.7576686114877305
 31
0.0
 70
128
 71
8
 72
2
 41
1.0
 42
0.0
  1

  3
Standard
100
AcDbAlignedDimension
 13
130.16226358839981
 23
139.8826686114877305
 33
0.0
 14
135.16226358839981
 24
139.8826686114877305
 34
0.0
 50
0.0
100
AcDbRotatedDimension
1001
ACAD
1000
DSTYLE
1002
{
1070
144
1040
1
1002
}
  0
DIMENSION
  5
A6
100
AcDbEntity
  8
dim
 62
256
370
-1
  6
BYLAYER
100
AcDbDimension
 10
117.16226358839981
 20
118.8826686114877305
 30
0.0
 11
123.91226358839981
 21
120.7576686114877305
 31
0.0
 70
128
 71
8
 72
2
 41
1.0
 42
0.0
  1

  3
Standard
100
AcDbAlignedDimension
 13
130.16226358839981
 23
139.8826686114877305
 33
0.0
 14
117.66226358839981
 24
139.8826686114877305
 34
0.0
 50
0.0
100
AcDbRotatedDimension
1001
ACAD
1000
DSTYLE
1002
{
1070
144
1040
1
1002
}
  0
DIMENSION
  5
A7
100
AcDbEntity
  8
dim
 62
256
370
-1
  6
BYLAYER
100
AcDbDimension
 10
130.16226358839981
 20
118.8826686114877305
 30
0.0
 11
137.41226358839981
 21
120.7576686114877305
 31
0.0
 70
128
 71
8
 72
2
 41
1.0
 42
0.0
  1

  3
Standard
100
AcDbAlignedDimension
 13
130.16226358839981
 23
139.8826686114877305
 33
0.0
 14
144.66226358839981
 24
139.8826686114877305
 34
0.0
 50
0.0
100
AcDbRotatedDimension
1001
ACAD
1000
DSTYLE
1002
{
1070
144
1040
1
1002
}
  0
DIMENSION
  5
A8
100
AcDbEntity
  8
dim
 62
256
370
-1
  6
BYLAYER
100
AcDbDimension
 10
124.16226358839981
 20
114.8826686114877305
 30
0.0
 11
121.66226358839981
 21
116.7576686114877305
 31
0.0
 70
128
 71
8
 72
2
 41
1.0
 42
0.0
  1

  3
Standard
100
AcDbAlignedDimension
 13
130.16226358839981
 23
139.8826686114877305
 33
0.0
 14
113.16226358839981
 24
139.8826686114877305
 34
0.0
 50
0.0
100
AcDbRotatedDimension
1001
ACAD
1000
DSTYLE
1002
{
1070
144
1040
1
1002
}
  0
DIMENSION
  5
A9
100
AcDbEntity
  8
dim
 62
256
370
-1
  6
BYLAYER
100
AcDbDimension
 10
130.16226358839981
 20
114.8826686114877305
 30
0.0
 11
139.16226358839981
 21
116.7576686114877305
 31
0.0
 70
128
 71
8
 72
2
 41
1.0
 42
0.0
  1

  3
Standard
100
AcDbAlignedDimension
 13
130.16226358839981
 23
139.8826686114877305
 33
0.0
 14
148.16226358839981
 24
139.8826686114877305
 34
0.0
 50
0.0
100
AcDbRotatedDimension
1001
ACAD
1000
DSTYLE
1002
{
1070
144
1040
1
1002
}
  0
DIMENSION
  5
AA
100
AcDbEntity
  8
dim
 62
256
370
-1
  6
BYLAYER
100
AcDbDimension
 10
140.16226358839981
 20
144.8826686114877305
 30
0.0
 11
130.16226358839981
 21
146.7576686114877305
 31
0.0
 70
128
 71
8
 72
2
 41
1.0
 42
0.0
  1

  3
Standard
100
AcDbAlignedDimension
 13
118.41226358839981
 23
148.3789913454709506
 33
0.0
 14
141.91226358839981
 24
148.3789913454709506
 34
0.0
 50
0.0
100
AcDbRotatedDimension
1001
ACAD
1000
DSTYLE
1002
{
1070
144
1040
1
1002
}
  0
DIMENSION
  5
AB
100
AcDbEntity
  8
dim
 62
256
370
-1
  6
BYLAYER
100
AcDbDimension
 10
136.16226358839981
 20
148.4826686114877248
 30
0.0
 11
130.16226358839981
 21
150.3576686114877248
 31
0.0
 70
128
 71
8
 72
2
 41
1.0
 42
0.0
  1

  3
Standard
100
AcDbAlignedDimension
 13
116.91226358839981
 23
145.3722781061825913
 33
0.0
 14
143.41226358839981
 24
145.3722781061825913
 34
0.0
 50
0.0
100
AcDbRotatedDimension
1001
ACAD
1000
DSTYLE
1002
{
1070
144
1040
1
1002
}
  0
LINE
  5
AC
100
AcDbEntity
100
AcDbLine
  8
dim
 62
256
370
-1
  6
BYLAYER
 10
130.16226358839981
 20
139.8826686114877305
 30
0.0
 11
151.16226358839981
 21
139.8826686114877305
 31
0.0
  0
DIMENSION
  5
AD
100
AcDbEntity
  8
dim
 62
256
370
-1
  6
BYLAYER
100
AcDbDimension
 10
151.16226358839981
 20
139.8826686114877305
 30
0.0
 11
151.7795000168535182
 21
144.4706715274547548
 31
0.0
 70
130
 71
8
 72
2
 41
1.0
 42
0.0
  1

  3
Standard
100
AcDb2LineAngularDimension
 13
143.41226358839981
 23
145.772278106182597
 33
0.0
 14
141.5846773815032407
 24
144.9599181758798636
 34
0.0
 15
130.16226358839981
 25
139.8826686114877305
 35
0.0
 16
150.16226358839981
 26
142.8826686114877305
 36
0.0
  0
DIMENSION
  5
AE
100
AcDbEntity
  8
dim
 62
256
370
-1
  6
BYLAYER
100
AcDbDimension
 10
118.41226358839981
 20
148.3789913454709506
 30
0.0
 11
108.3988629157979631
 21
146.9268162649510714
 31
0.0
 70
130
 71
8
 72
2
 41
1.0
 42
0.0
  1

  3
Standard
100
AcDb2LineAngularDimension
 13
151.16226358839981
 23
139.8826686114877305
 33
0.0
 14
130.16226358839981
 24
139.8826686114877305
 34
0.0
 15
120.0329532435722228
 25
147.2070847614732543
 35
0.0
 16
109.16226358839981
 26
139.8826686114877305
 36
0.0
  0
LEADER
  5
AF
  8
dim
 62
256
370
-1
  6
BYLAYER
100
AcDbEntity
100
AcDbLeader
  3
Standard
 71
0
 72
0
 73
3
 74
0
 75
0
 40
1.0
 41
10.0
 76
2
 10
140.2915739332273972
 20
147.2070847614732543
 10
120.0329532435722228
 20
132.5582524615022066
  0
LEADER
  5
B0
  8
dim
 62
256
370
-1
  6
BYLAYER
100
AcDbEntity
100
AcDbLeader
  3
Standard
 71
0
 72
0
 73
3
 74
0
 75
0
 40
1.0
 41
10.0
 76
2
 10
118.7398497952963794
 20
134.8054190470955973
 10
141.6187028257893985
 20
144.8826686114877305
  0
LEADER
  5
B1
  8
dim
 62
256
370
-1
  6
BYLAYER
100
AcDbEntity
100
AcDbLeader
  3
Standard
 71
0
 72
0
 73
3
 74
0
 75
0
 40
1.0
 41
10.0
 76
2
 10
140.2915739332273972
 20
132.5582524615022066
 10
120.0329532435722228
 20
147.2070847614732543
  0
LEADER
  5
B2
  8
dim
 62
256
370
-1
  6
BYLAYER
100
AcDbEntity
100
AcDbLeader
  3
Standard
 71
0
 72
0
 73
3
 74
0
 75
0
 40
1.0
 41
10.0
 76
2
 10
118.7058243510102216
 20
144.8826686114877305
 10
141.5846773815032407
 20
134.8054190470955973
  0
LINE
  5
B3
100
AcDbEntity
100
AcDbLine
  8
0
 62
256
370
-1
  6
BYLAYER
 10
148.16226358839981
 20
177.8826686114877305
 30
0.0
 11
148.16226358839981
 21
169.8826686114877305
 31
0.0
  0
LINE
  5
B4
100
AcDbEntity
100
AcDbLine
  8
0
 62
256
370
-1
  6
BYLAYER
 10
148.16226358839981
 20
169.8826686114877305
 30
0.0
 11
112.16226358839981
 21
169.8826686114877305
 31
0.0
  0
LINE
  5
B5
100
AcDbEntity
100
AcDbLine
  8
0
 62
256
370
-1
  6
BYLAYER
 10
112.16226358839981
 20
169.8826686114877305
 30
0.0
 11
112.16226358839981
 21
177.8826686114877305
 31
0.0
  0
LINE
  5
B6
100
AcDbEntity
100
AcDbLine
  8
0
 62
256
370
-1
  6
BYLAYER
 10
112.16226358839981
 20
177.8826686114877305
 30
0.0
 11
148.16226358839981
 21
177.8826686114877305
 31
0.0
  0
LINE
  5
B7
100
AcDbEntity
100
AcDbLine
  8
0
 62
256
370
-1
  6
BYLAYER
 10
144.66226358839981
 20
177.8826686114877305
 30
0.0
 11
144.66226358839981
 21
188.8826686114877305
 31
0.0
  0
LINE
  5
B8
100
AcDbEntity
100
AcDbLine
  8
0
 62
256
370
-1
  6
BYLAYER
 10
144.66226358839981
 20
188.8826686114877305
 30
0.0
 11
142.66226358839981
 21
188.8826686114877305
 31
0.0
  0
LINE
  5
B9
100
AcDbEntity
100
AcDbLine
  8
0
 62
256
370
-1
  6
BYLAYER
 10
142.66226358839981
 20
188.8826686114877305
 30
0.0
 11
130.16226358839981
 21
181.8826686114877305
 31
0.0
  0
LINE
  5
BA
100
AcDbEntity
100
AcDbLine
  8
0
 62
256
370
-1
  6
BYLAYER
 10
130.16226358839981
 20
181.8826686114877305
 30
0.0
 11
117.66226358839981
 21
188.8826686114877305
 31
0.0
  0
LINE
  5
BB
100
AcDbEntity
100
AcDbLine
  8
0
 62
256
370
-1
  6
BYLAYER
 10
117.66226358839981
 20
188.8826686114877305
 30
0.0
 11
115.66226358839981
 21
188.8826686114877305
 31
0.0
  0
LINE
  5
BC
100
AcDbEntity
100
AcDbLine
  8
0
 62
256
370
-1
  6
BYLAYER
 10
115.66226358839981
 20
188.8826686114877305
 30
0.0
 11
115.66226358839981
 21
177.8826686114877305
 31
0.0
  0
LINE
  5
BD
100
AcDbEntity
100
AcDbLine
  8
0
 62
256
370
-1
  6
BYLAYER
 10
135.16226358839981
 20
197.8826686114877305
 30
0.0
 11
125.16226358839981
 21
197.8826686114877305
 31
0.0
  0
LINE
  5
BE
100
AcDbEntity
100
AcDbLine
  8
0
 62
256
370
-1
  6
BYLAYER
 10
125.16226358839981
 20
197.8826686114877305
 30
0.0
 11
125.16226358839981
 21
184.6826686114877418
 31
0.0
  0
LINE
  5
BF
100
AcDbEntity
100
AcDbLine
  8
0
 62
256
370
-1
  6
BYLAYER
 10
135.16226358839981
 20
184.6826686114877134
 30
0.0
 11
135.16226358839981
 21
197.8826686114877305
 31
0.0
  0
LINE
  5
C0
100
AcDbEntity
100
AcDbLine
  8
hidden
 62
256
370
-1
  6
BYLAYER
 10
133.16226358839981
 20
197.8826686114877305
 30
0.0
 11
133.16226358839981
 21
171.8826686114877305
 31
0.0
  0
LINE
  5
C1
100
AcDbEntity
100
AcDbLine
  8
hidden
 62
256
370
-1
  6
BYLAYER
 10
127.16226358839981
 20
197.8826686114877305
 30
0.0
 11
127.16226358839981
 21
171.8826686114877305
 31
0.0
  0
LINE
  5
C2
100
AcDbEntity
100
AcDbLine
  8
hidden
 62
256
370
-1
  6
BYLAYER
 10
147.16226358839981
 20
177.8826686114877305
 30
0.0
 11
147.16226358839981
 21
171.8826686114877305
 31
0.0
  0
LINE
  5
C3
100
AcDbEntity
100
AcDbLine
  8
hidden
 62
256
370
-1
  6
BYLAYER
 10
147.16226358839981
 20
171.8826686114877305
 30
0.0
 11
113.16226358839981
 21
171.8826686114877305
 31
0.0
  0
LINE
  5
C4
100
AcDbEntity
100
AcDbLine
  8
hidden
 62
256
370
-1
  6
BYLAYER
 10
113.16226358839981
 20
171.8826686114877305
 30
0.0
 11
113.16226358839981
 21
177.8826686114877305
 31
0.0
  0
LINE
  5
C5
100
AcDbEntity
100
AcDbLine
  8
hidden
 62
256
370
-1
  6
BYLAYER
 10
115.66226358839981
 20
177.8826686114877305
 30
0.0
 11
115.66226358839981
 21
171.8826686114877305
 31
0.0
  0
LINE
  5
C6
100
AcDbEntity
100
AcDbLine
  8
hidden
 62
256
370
-1
  6
BYLAYER
 10
144.66226358839981
 20
177.8826686114877305
 30
0.0
 11
144.66226358839981
 21
171.8826686114877305
 31
0.0
  0
LINE
  5
C7
100
AcDbEntity
100
AcDbLine
  8
hidden
 62
256
370
-1
  6
BYLAYER
 10
125.16226358839981
 20
184.6826686114877134
 30
0.0
 11
125.16226358839981
 21
171.8826686114877305
 31
0.0
  0
LINE
  5
C8
100
AcDbEntity
100
AcDbLine
  8
hidden
 62
256
370
-1
  6
BYLAYER
 10
135.16226358839981
 20
184.6826686114877134
 30
0.0
 11
135.16226358839981
 21
171.8826686114877305
 31
0.0
  0
LINE
  5
C9
100
AcDbEntity
100
AcDbLine
  8
hidden
 62
256
370
-1
  6
BYLAYER
 10
117.66226358839981
 20
188.8826686114877305
 30
0.0
 11
117.66226358839981
 21
171.8826686114877305
 31
0.0
  0
LINE
  5
CA
100
AcDbEntity
100
AcDbLine
  8
hidden
 62
256
370
-1
  6
BYLAYER
 10
142.66226358839981
 20
188.8826686114877305
 30
0.0
 11
142.66226358839981
 21
171.8826686114877305
 31
0.0
  0
LINE
  5
CB
100
AcDbEntity
100
AcDbLine
  8
hidden
 62
256
370
-1
  6
BYLAYER
 10
115.66226358839981
 20
188.8826686114877305
 30
0.0
 11
130.16226358839981
 21
181.8826686114877305
 31
0.0
  0
LINE
  5
CC
100
AcDbEntity
100
AcDbLine
  8
hidden
 62
256
370
-1
  6
BYLAYER
 10
130.16226358839981
 20
181.8826686114877305
 30
0.0
 11
144.66226358839981
 21
188.8826686114877305
 31
0.0
  0
LINE
  5
CD
100
AcDbEntity
100
AcDbLine
  8
hidden
 62
256
370
-1
  6
BYLAYER
 10
188.16226358839981
 20
136.8826686114877305
 30
0.0
 11
162.16226358839981
 21
136.8826686114877305
 31
0.0
  0
LINE
  5
CE
100
AcDbEntity
100
AcDbLine
  8
hidden
 62
256
370
-1
  6
BYLAYER
 10
188.16226358839981
 20
142.8826686114877305
 30
0.0
 11
162.16226358839981
 21
142.8826686114877305
 31
0.0
  0
LINE
  5
CF
100
AcDbEntity
100
AcDbLine
  8
hidden
 62
256
370
-1
  6
BYLAYER
 10
168.16226358839981
 20
122.8826686114877305
 30
0.0
 11
162.16226358839981
 21
122.8826686114877305
 31
0.0
  0
LINE
  5
D0
100
AcDbEntity
100
AcDbLine
  8
hidden
 62
256
370
-1
  6
BYLAYER
 10
162.16226358839981
 20
122.8826686114877305
 30
0.0
 11
162.16226358839981
 21
156.8826686114877305
 31
0.0
  0
LINE
  5
D1
100
AcDbEntity
100
AcDbLine
  8
hidden
 62
256
370
-1
  6
BYLAYER
 10
162.16226358839981
 20
156.8826686114877305
 30
0.0
 11
168.16226358839981
 21
156.8826686114877305
 31
0.0
  0
LINE
  5
D2
100
AcDbEntity
100
AcDbLine
  8
hidden
 62
256
370
-1
  6
BYLAYER
 10
168.16226358839981
 20
154.3826686114877305
 30
0.0
 11
162.16226358839981
 21
154.3826686114877305
 31
0.0
  0
LINE
  5
D3
100
AcDbEntity
100
AcDbLine
  8
hidden
 62
256
370
-1
  6
BYLAYER
 10
168.16226358839981
 20
125.3826686114877305
 30
0.0
 11
162.16226358839981
 21
125.3826686114877305
 31
0.0
  0
LINE
  5
D4
100
AcDbEntity
100
AcDbLine
  8
hidden
 62
256
370
-1
  6
BYLAYER
 10
174.962263588399793
 20
144.8826686114877305
 30
0.0
 11
162.16226358839981
 21
144.8826686114877305
 31
0.0
  0
LINE
  5
D5
100
AcDbEntity
100
AcDbLine
  8
hidden
 62
256
370
-1
  6
BYLAYER
 10
174.962263588399793
 20
134.8826686114877305
 30
0.0
 11
162.16226358839981
 21
134.8826686114877305
 31
0.0
  0
LINE
  5
D6
100
AcDbEntity
100
AcDbLine
  8
hidden
 62
256
370
-1
  6
BYLAYER
 10
172.16226358839981
 20
152.3826686114877305
 30
0.0
 11
162.16226358839981
 21
152.3826686114877305
 31
0.0
  0
LINE
  5
D7
100
AcDbEntity
100
AcDbLine
  8
hidden
 62
256
370
-1
  6
BYLAYER
 10
172.16226358839981
 20
127.3826686114877305
 30
0.0
 11
162.16226358839981
 21
127.3826686114877305
 31
0.0
  0
LINE
  5
D8
100
AcDbEntity
100
AcDbLine
  8
hidden
 62
256
370
-1
  6
BYLAYER
 10
172.16226358839981
 20
152.3826686114877305
 30
0.0
 11
179.16226358839981
 21
139.8826686114877305
 31
0.0
  0
LINE
  5
D9
100
AcDbEntity
100
AcDbLine
  8
hidden
 62
256
370
-1
  6
BYLAYER
 10
179.16226358839981
 20
139.8826686114877305
 30
0.0
 11
172.16226358839981
 21
127.3826686114877305
 31
0.0
  0
LINE
  5
DA
100
AcDbEntity
100
AcDbLine
  8
0
 62
256
370
-1
  6
BYLAYER
 10
168.16226358839981
 20
121.8826686114877305
 30
0.0
 11
160.16226358839981
 21
121.8826686114877305
 31
0.0
  0
LINE
  5
DB
100
AcDbEntity
100
AcDbLine
  8
0
 62
256
370
-1
  6
BYLAYER
 10
160.16226358839981
 20
121.8826686114877305
 30
0.0
 11
160.16226358839981
 21
157.8826686114877305
 31
0.0
  0
LINE
  5
DC
100
AcDbEntity
100
AcDbLine
  8
0
 62
256
370
-1
  6
BYLAYER
 10
160.16226358839981
 20
157.8826686114877305
 30
0.0
 11
168.16226358839981
 21
157.8826686114877305
 31
0.0
  0
LINE
  5
DD
100
AcDbEntity
100
AcDbLine
  8
0
 62
256
370
-1
  6
BYLAYER
 10
168.16226358839981
 20
157.8826686114877305
 30
0.0
 11
168.16226358839981
 21
121.8826686114877305
 31
0.0
  0
LINE
  5
DE
100
AcDbEntity
100
AcDbLine
  8
0
 62
256
370
-1
  6
BYLAYER
 10
168.16226358839981
 20
125.3826686114877305
 30
0.0
 11
172.16226358839981
 21
125.3826686114877305
 31
0.0
  0
LINE
  5
DF
100
AcDbEntity
100
AcDbLine
  8
0
 62
256
370
-1
  6
BYLAYER
 10
172.16226358839981
 20
125.3826686114877305
 30
0.0
 11
179.16226358839981
 21
139.8826686114877305
 31
0.0
  0
LINE
  5
E0
100
AcDbEntity
100
AcDbLine
  8
0
 62
256
370
-1
  6
BYLAYER
 10
179.16226358839981
 20
139.8826686114877305
 30
0.0
 11
172.16226358839981
 21
154.3826686114877305
 31
0.0
  0
LINE
  5
E1
100
AcDbEntity
100
AcDbLine
  8
0
 62
256
370
-1
  6
BYLAYER
 10
172.16226358839981
 20
154.3826686114877305
 30
0.0
 11
168.16226358839981
 21
154.3826686114877305
 31
0.0
  0
LINE
  5
E2
100
AcDbEntity
100
AcDbLine
  8
0
 62
256
370
-1
  6
BYLAYER
 10
188.16226358839981
 20
134.8826686114877305
 30
0.0
 11
188.16226358839981
 21
144.8826686114877305
 31
0.0
  0
LINE
  5
E3
100
AcDbEntity
100
AcDbLine
  8
0
 62
256
370
-1
  6
BYLAYER
 10
188.16226358839981
 20
144.8826686114877305
 30
0.0
 11
176.7484704849515253
 21
144.8826686114877305
 31
0.0
  0
LINE
  5
E4
100
AcDbEntity
100
AcDbLine
  8
0
 62
256
370
-1
  6
BYLAYER
 10
176.7484704849515253
 20
134.8826686114877305
 30
0.0
 11
188.16226358839981
 21
134.8826686114877305
 31
0.0
  0
LINE
  5
E5
100
AcDbEntity
100
AcDbLine
  8
hidden
 62
256
370
-1
  6
BYLAYER
 10
172.16226358839981
 20
154.3826686114877305
 30
0.0
 11
172.16226358839981
 21
108.3826686114877305
 31
0.0
  0
DIMENSION
  5
E6
100
AcDbEntity
  8
dim
 62
256
370
-1
  6
BYLAYER
100
AcDbDimension
 10
152.16226358839981
 20
169.8826686114877305
 30
0.0
 11
150.28726358839981
 21
170.8826686114877305
 31
0.0
 70
128
 71
8
 72
2
 41
1.0
 42
0.0
  1

  3
Standard
100
AcDbAlignedDimension
 13
147.16226358839981
 23
171.8826686114877305
 33
0.0
 14
148.16226358839981
 24
169.8826686114877305
 34
0.0
 50
90.0
100
AcDbRotatedDimension
1001
ACAD
1000
DSTYLE
1002
{
1070
144
1040
1
1002
}
  0
DIMENSION
  5
E7
100
AcDbEntity
  8
dim
 62
256
370
-1
  6
BYLAYER
100
AcDbDimension
 10
110.16226358839981
 20
170.8826686114877305
 30
0.0
 11
108.28726358839981
 21
173.8826686114877305
 31
0.0
 70
128
 71
8
 72
2
 41
1.0
 42
0.0
  1

  3
Standard
100
AcDbAlignedDimension
 13
112.16226358839981
 23
177.8826686114877305
 33
0.0
 14
112.16226358839981
 24
169.8826686114877305
 34
0.0
 50
90.0
100
AcDbRotatedDimension
1001
ACAD
1000
DSTYLE
1002
{
1070
144
1040
1
1002
}
  0
DIMENSION
  5
E8
100
AcDbEntity
  8
dim
 62
256
370
-1
  6
BYLAYER
100
AcDbDimension
 10
152.16226358839981
 20
171.8826686114877305
 30
0.0
 11
150.28726358839981
 21
176.8826686114877305
 31
0.0
 70
128
 71
8
 72
2
 41
1.0
 42
0.0
  1

  3
Standard
100
AcDbAlignedDimension
 13
130.16226358839981
 23
181.8826686114877305
 33
0.0
 14
148.16226358839981
 24
171.8826686114877305
 34
0.0
 50
90.0
100
AcDbRotatedDimension
1001
ACAD
1000
DSTYLE
1002
{
1070
144
1040
1
1002
}
  0
DIMENSION
  5
E9
100
AcDbEntity
  8
dim
 62
256
370
-1
  6
BYLAYER
100
AcDbDimension
 10
152.16226358839981
 20
181.8826686114877305
 30
0.0
 11
150.28726358839981
 21
185.3826686114877305
 31
0.0
 70
128
 71
8
 72
2
 41
1.0
 42
0.0
  1

  3
Standard
100
AcDbAlignedDimension
 13
144.66226358839981
 23
188.8826686114877305
 33
0.0
 14
144.66226358839981
 24
181.8826686114877305
 34
0.0
 50
90.0
100
AcDbRotatedDimension
1001
ACAD
1000
DSTYLE
1002
{
1070
144
1040
1
1002
}
  0
DIMENSION
  5
EA
100
AcDbEntity
  8
dim
 62
256
370
-1
  6
BYLAYER
100
AcDbDimension
 10
110.16226358839981
 20
177.8826686114877305
 30
0.0
 11
108.28726358839981
 21
187.8826686114877305
 31
0.0
 70
128
 71
8
 72
2
 41
1.0
 42
0.0
  1

  3
Standard
100
AcDbAlignedDimension
 13
135.16226358839981
 23
197.8826686114877305
 33
0.0
 14
110.16226358839981
 24
177.8826686114877305
 34
0.0
 50
90.0
100
AcDbRotatedDimension
1001
ACAD
1000
DSTYLE
1002
{
1070
144
1040
1
1002
}
  0
LEADER
  5
EB
  8
dim
 62
256
370
-1
  6
BYLAYER
100
AcDbEntity
100
AcDbLeader
  3
Standard
 71
0
 72
0
 73
3
 74
0
 75
0
 40
1.0
 41
10.0
 76
2
 10
112.16226358839981
 20
169.8826686114877305
 10
112.16226358839981
 20
139.8826686114877305
  0
LEADER
  5
EC
  8
dim
 62
256
370
-1
  6
BYLAYER
100
AcDbEntity
100
AcDbLeader
  3
Standard
 71
0
 72
0
 73
3
 74
0
 75
0
 40
1.0
 41
10.0
 76
2
 10
113.16226358839981
 20
139.8826686114877305
 10
113.16226358839981
 20
171.8826686114877305
  0
LEADER
  5
ED
  8
dim
 62
256
370
-1
  6
BYLAYER
100
AcDbEntity
100
AcDbLeader
  3
Standard
 71
0
 72
0
 73
3
 74
0
 75
0
 40
1.0
 41
10.0
 76
2
 10
115.66226358839981
 20
139.8826686114877305
 10
115.66226358839981
 20
171.8826686114877305
  0
LEADER
  5
EE
  8
dim
 62
256
370
-1
  6
BYLAYER
100
AcDbEntity
100
AcDbLeader
  3
Standard
 71
0
 72
0
 73
3
 74
0
 75
0
 40
1.0
 41
10.0
 76
2
 10
117.66226358839981
 20
171.8826686114877305
 10
117.66226358839981
 20
139.8826686114877305
  0
LEADER
  5
EF
  8
dim
 62
256
370
-1
  6
BYLAYER
100
AcDbEntity
100
AcDbLeader
  3
Standard
 71
0
 72
0
 73
3
 74
0
 75
0
 40
1.0
 41
10.0
 76
2
 10
125.16226358839981
 20
171.8826686114877305
 10
125.16226358839981
 20
139.8826686114877305
  0
LEADER
  5
F0
  8
dim
 62
256
370
-1
  6
BYLAYER
100
AcDbEntity
100
AcDbLeader
  3
Standard
 71
0
 72
0
 73
3
 74
0
 75
0
 40
1.0
 41
10.0
 76
4
 10
127.16226358839981
 20
139.8826686114877305
 10
127.16226358839981
 20
171.8826686114877305
 10
133.16226358839981
 20
171.8826686114877305
 10
133.16226358839981
 20
139.8826686114877305
  0
LEADER
  5
F1
  8
dim
 62
256
370
-1
  6
BYLAYER
100
AcDbEntity
100
AcDbLeader
  3
Standard
 71
0
 72
0
 73
3
 74
0
 75
0
 40
1.0
 41
10.0
 76
2
 10
135.16226358839981
 20
171.8826686114877305
 10
135.16226358839981
 20
139.8826686114877305
  0
LEADER
  5
F2
  8
dim
 62
256
370
-1
  6
BYLAYER
100
AcDbEntity
100
AcDbLeader
  3
Standard
 71
0
 72
0
 73
3
 74
0
 75
0
 40
1.0
 41
10.0
 76
2
 10
142.66226358839981
 20
139.8826686114877305
 10
142.66226358839981
 20
171.8826686114877305
  0
LEADER
  5
F3
  8
dim
 62
256
370
-1
  6
BYLAYER
100
AcDbEntity
100
AcDbLeader
  3
Standard
 71
0
 72
0
 73
3
 74
0
 75
0
 40
1.0
 41
10.0
 76
2
 10
144.66226358839981
 20
171.8826686114877305
 10
144.66226358839981
 20
139.8826686114877305
  0
LEADER
  5
F4
  8
dim
 62
256
370
-1
  6
BYLAYER
100
AcDbEntity
100
AcDbLeader
  3
Standard
 71
0
 72
0
 73
3
 74
0
 75
0
 40
1.0
 41
10.0
 76
2
 10
147.16226358839981
 20
171.8826686114877305
 10
147.16226358839981
 20
139.8826686114877305
  0
LEADER
  5
F5
  8
dim
 62
256
370
-1
  6
BYLAYER
100
AcDbEntity
100
AcDbLeader
  3
Standard
 71
0
 72
0
 73
3
 74
0
 75
0
 40
1.0
 41
10.0
 76
2
 10
148.16226358839981
 20
139.8826686114877305
 10
148.16226358839981
 20
169.8826686114877305
  0
LEADER
  5
F6
  8
dim
 62
256
370
-1
  6
BYLAYER
100
AcDbEntity
100
AcDbLeader
  3
Standard
 71
0
 72
0
 73
3
 74
0
 75
0
 40
1.0
 41
10.0
 76
2
 10
130.16226358839981
 20
181.8826686114877305
 10
129.9990883055951372
 20
139.764677984686216
  0
LEADER
  5
F7
  8
dim
 62
256
370
-1
  6
BYLAYER
100
AcDbEntity
100
AcDbLeader
  3
Standard
 71
0
 72
0
 73
3
 74
0
 75
0
 40
1.0
 41
10.0
 76
2
 10
160.16226358839981
 20
157.8826686114877305
 10
130.0692808530508842
 20
157.8824284490779917
  0
LEADER
  5
F8
  8
dim
 62
256
370
-1
  6
BYLAYER
100
AcDbEntity
100
AcDbLeader
  3
Standard
 71
0
 72
0
 73
3
 74
0
 75
0
 40
1.0
 41
10.0
 76
2
 10
162.16226358839981
 20
156.8826686114877305
 10
130.0654064726353454
 20
156.8823926886345816
  0
LEADER
  5
F9
  8
dim
 62
256
370
-1
  6
BYLAYER
100
AcDbEntity
100
AcDbLeader
  3
Standard
 71
0
 72
0
 73
3
 74
0
 75
0
 40
1.0
 41
10.0
 76
2
 10
162.16226358839981
 20
154.3826686114877305
 10
130.0557204204381208
 20
154.3822771770097972
  0
LEADER
  5
FA
  8
dim
 62
256
370
-1
  6
BYLAYER
100
AcDbEntity
100
AcDbLeader
  3
Standard
 71
0
 72
0
 73
3
 74
0
 75
0
 40
1.0
 41
10.0
 76
2
 10
130.0479714288438231
 20
152.3821460926572513
 10
162.16226358839981
 20
152.3826686114877305
  0
LEADER
  5
FB
  8
dim
 62
256
370
-1
  6
BYLAYER
100
AcDbEntity
100
AcDbLeader
  3
Standard
 71
0
 72
0
 73
3
 74
0
 75
0
 40
1.0
 41
10.0
 76
2
 10
162.16226358839981
 20
144.8826686114877305
 10
130.16226358839981
 20
144.8826686114877305
  0
LEADER
  5
FC
  8
dim
 62
256
370
-1
  6
BYLAYER
100
AcDbEntity
100
AcDbLeader
  3
Standard
 71
0
 72
0
 73
3
 74
0
 75
0
 40
1.0
 41
10.0
 76
2
 10
130.0111534018111854
 20
142.8788604797613857
 10
162.16226358839981
 20
142.8826686114877305
  0
LEADER
  5
FD
  8
dim
 62
256
370
-1
  6
BYLAYER
100
AcDbEntity
100
AcDbLeader
  3
Standard
 71
0
 72
0
 73
3
 74
0
 75
0
 40
1.0
 41
10.0
 76
2
 10
179.16226358839981
 20
139.8826686114877305
 10
129.9990883055951372
 20
139.764677984686216
  0
LEADER
  5
FE
  8
dim
 62
256
370
-1
  6
BYLAYER
100
AcDbEntity
100
AcDbLeader
  3
Standard
 71
0
 72
0
 73
3
 74
0
 75
0
 40
1.0
 41
10.0
 76
2
 10
162.16226358839981
 20
136.8826686114877305
 10
130.16226358839981
 20
136.8826686114877305
  0
LEADER
  5
FF
  8
dim
 62
256
370
-1
  6
BYLAYER
100
AcDbEntity
100
AcDbLeader
  3
Standard
 71
0
 72
0
 73
3
 74
0
 75
0
 40
1.0
 41
10.0
 76
2
 10
130.16226358839981
 20
134.8826686114877305
 10
162.16226358839981
 20
134.8826686114877305
  0
LEADER
  5
100
  8
dim
 62
256
370
-1
  6
BYLAYER
100
AcDbEntity
100
AcDbLeader
  3
Standard
 71
0
 72
0
 73
3
 74
0
 75
0
 40
1.0
 41
10.0
 76
2
 10
130.16226358839981
 20
127.3826686114877305
 10
162.16226358839981
 20
127.3826686114877305
  0
LEADER
  5
101
  8
dim
 62
256
370
-1
  6
BYLAYER
100
AcDbEntity
100
AcDbLeader
  3
Standard
 71
0
 72
0
 73
3
 74
0
 75
0
 40
1.0
 41
10.0
 76
2
 10
162.16226358839981
 20
125.3826686114877305
 10
130.16226358839981
 20
125.3826686114877305
  0
LEADER
  5
102
  8
dim
 62
256
370
-1
  6
BYLAYER
100
AcDbEntity
100
AcDbLeader
  3
Standard
 71
0
 72
0
 73
3
 74
0
 75
0
 40
1.0
 41
10.0
 76
2
 10
130.16226358839981
 20
121.8826686114877305
 10
160.16226358839981
 20
121.8826686114877305
  0
LEADER
  5
103
  8
dim
 62
256
370
-1
  6
BYLAYER
100
AcDbEntity
100
AcDbLeader
  3
Standard
 71
0
 72
0
 73
3
 74
0
 75
0
 40
1.0
 41
10.0
 76
2
 10
162.16226358839981
 20
122.8826686114877305
 10
130.16226358839981
 20
122.8826686114877305
  0
CIRCLE
  5
104
100
AcDbEntity
100
AcDbCircle
  8
0
 62
256
370
-1
  6
BYLAYER
 10
50.0
 20
49.0
 30
0.0
 40
14.0
  0
LINE
  5
105
100
AcDbEntity
100
AcDbLine
  8
0
 62
256
370
-1
  6
BYLAYER
 10
52.0
 20
50.0
 30
0.0
 11
52.0
 21
48.0
 31
0.0
  0
LINE
  5
106
100
AcDbEntity
100
AcDbLine
  8
0
 62
256
370
-1
  6
BYLAYER
 10
48.0
 20
48.0
 30
0.0
 11
48.0
 21
50.0
 31
0.0
  0
ARC
  5
107
100
AcDbEntity
  8
0
 62
256
370
-1
  6
BYLAYER
100
AcDbCircle
 10
50.0
 20
50.0
 30
0.0
 40
2.0
100
AcDbArc
 50
0.0
 51
180.0
  0
ARC
  5
108
100
AcDbEntity
  8
0
 62
256
370
-1
  6
BYLAYER
100
AcDbCircle
 10
50.0
 20
48.0
 30
0.0
 40
2.0
100
AcDbArc
 50
180.0
 51
0.0
  0
CIRCLE
  5
109
100
AcDbEntity
100
AcDbCircle
  8
0
 62
256
370
-1
  6
BYLAYER
 10
50.0
 20
49.0
 30
0.0
 40
17.5
  0
CIRCLE
  5
10A
100
AcDbEntity
100
AcDbCircle
  8
0
 62
256
370
-1
  6
BYLAYER
 10
50.0
 20
49.0
 30
0.0
 40
17.5
  0
CIRCLE
  5
10B
100
AcDbEntity
100
AcDbCircle
  8
0
 62
256
370
-1
  6
BYLAYER
 10
50.0
 20
49.0
 30
0.0
 40
13.0
  0
LINE
  5
10C
100
AcDbEntity
100
AcDbLine
  8
hidden
 62
256
370
-1
  6
BYLAYER
 10
46.0
 20
48.0
 30
0.0
 11
46.0
 21
50.0
 31
0.0
  0
LINE
  5
10D
100
AcDbEntity
100
AcDbLine
  8
hidden
 62
256
370
-1
  6
BYLAYER
 10
54.0
 20
50.0
 30
0.0
 11
54.0
 21
48.0
 31
0.0
  0
ARC
  5
10E
100
AcDbEntity
  8
hidden
 62
256
370
-1
  6
BYLAYER
100
AcDbCircle
 10
50.0
 20
48.0
 30
0.0
 40
4.0
100
AcDbArc
 50
180.0
 51
0.0
  0
ARC
  5
10F
100
AcDbEntity
  8
hidden
 62
256
370
-1
  6
BYLAYER
100
AcDbCircle
 10
50.0
 20
50.0
 30
0.0
 40
4.0
100
AcDbArc
 50
0.0
 51
180.0
  0
CIRCLE
  5
110
100
AcDbEntity
100
AcDbCircle
  8
hidden
 62
256
370
-1
  6
BYLAYER
 10
50.0
 20
49.0
 30
0.0
 40
14.5
  0
LINE
  5
111
100
AcDbEntity
100
AcDbLine
  8
hidden
 62
256
370
-1
  6
BYLAYER
 10
66.0390149323454381
 20
42.0
 30
0.0
 11
62.6984250992002927
 21
42.0
 31
0.0
  0
ARC
  5
112
100
AcDbEntity
  8
0
 62
256
370
-1
  6
BYLAYER
100
AcDbCircle
 10
50.0
 20
49.0
 30
0.0
 40
13.0
100
AcDbArc
 50
32.5789703928041163
 51
327.4210296071959192
  0
LINE
  5
113
100
AcDbEntity
100
AcDbLine
  8
hidden
 62
256
370
-1
  6
BYLAYER
 10
62.6984250992002927
 20
56.0
 30
0.0
 11
66.0390149323454381
 21
56.0
 31
0.0
  0
CIRCLE
  5
114
100
AcDbEntity
100
AcDbCircle
  8
hidden
 62
256
370
-1
  6
BYLAYER
 10
50.0
 20
49.0
 30
0.0
 40
14.0
  0
ARC
  5
115
100
AcDbEntity
  8
hidden
 62
256
370
-1
  6
BYLAYER
100
AcDbCircle
 10
38.467437405329207
 20
55.0
 30
0.0
 40
0.5
100
AcDbArc
 50
332.5135737496187289
 51
90.0
  0
LINE
  5
116
100
AcDbEntity
100
AcDbLine
  8
hidden
 62
256
370
-1
  6
BYLAYER
 10
37.0385186031842792
 20
55.5
 30
0.0
 11
38.7416697508022949
 21
55.5
 31
0.0
  0
DIMENSION
  5
117
100
AcDbEntity
  8
dim
 62
256
370
-1
  6
BYLAYER
100
AcDbDimension
 10
38.967437405329207
 20
55.0
 30
0.0
 11
38.467437405329207
 21
56.875
 31
0.0
 70
131
 71
8
 72
2
 41
1.0
 42
0.0
  1

  3
Standard
100
AcDbDiametricDimension
 15
37.967437405329207
 25
55.0
 35
0.0
 40
0.0
1001
ACAD
1000
DSTYLE
1002
{
1070
144
1040
1
1002
}
  0
ARC
  5
118
100
AcDbEntity
  8
hidden
 62
256
370
-1
  6
BYLAYER
100
AcDbCircle
 10
38.467437405329207
 20
43.0
 30
0.0
 40
0.5
100
AcDbArc
 50
270.0
 51
27.4864262503812924
  0
ARC
  5
119
100
AcDbEntity
  8
0
 62
256
370
-1
  6
BYLAYER
100
AcDbCircle
 10
38.467437405329207
 20
43.0
 30
0.0
 40
0.5
100
AcDbArc
 50
270.0
 51
27.4864262503812782
  0
LINE
  5
11A
100
AcDbEntity
100
AcDbLine
  8
dim
 62
256
370
-1
  6
BYLAYER
 10
38.4674374053291999
 20
53.8218253804964704
 30
0.0
 11
38.4674374053291999
 21
55.0
 31
0.0
  0
LINE
  5
11B
100
AcDbEntity
100
AcDbLine
  8
hidden
 62
256
370
-1
  6
BYLAYER
 10
37.0385186031842792
 20
42.5
 30
0.0
 11
38.7416697508022949
 21
42.5
 31
0.0
  0
ARC
  5
11C
100
AcDbEntity
  8
hidden
 62
256
370
-1
  6
BYLAYER
100
AcDbCircle
 10
50.0
 20
49.0
 30
0.0
 40
12.5
100
AcDbArc
 50
152.5135737496187289
 51
207.4864262503812711
  0
DIMENSION
  5
11D
100
AcDbEntity
  8
dim
 62
256
370
-1
  6
BYLAYER
100
AcDbDimension
 10
38.967437405329207
 20
43.0
 30
0.0
 11
38.467437405329207
 21
44.875
 31
0.0
 70
131
 71
8
 72
2
 41
1.0
 42
0.0
  1

  3
Standard
100
AcDbDiametricDimension
 15
37.967437405329207
 25
43.0
 35
0.0
 40
0.0
1001
ACAD
1000
DSTYLE
1002
{
1070
144
1040
1
1002
}
  0
LINE
  5
11E
100
AcDbEntity
100
AcDbLine
  8
0
 62
256
370
-1
  6
BYLAYER
 10
85.0
 20
79.0
 30
0.0
 11
85.0
 21
79.0
 31
0.0
  0
LINE
  5
11F
100
AcDbEntity
100
AcDbLine
  8
0
 62
256
370
-1
  6
BYLAYER
 10
32.5
 20
79.0
 30
0.0
 11
67.5
 21
79.0
 31
0.0
  0
LINE
  5
120
100
AcDbEntity
100
AcDbLine
  8
0
 62
256
370
-1
  6
BYLAYER
 10
67.5
 20
79.0
 30
0.0
 11
67.5
 21
144.0
 31
0.0
  0
LINE
  5
121
100
AcDbEntity
100
AcDbLine
  8
0
 62
256
370
-1
  6
BYLAYER
 10
67.5
 20
144.0
 30
0.0
 11
32.5
 21
144.0
 31
0.0
  0
LINE
  5
122
100
AcDbEntity
100
AcDbLine
  8
0
 62
256
370
-1
  6
BYLAYER
 10
32.5
 20
144.0
 30
0.0
 11
32.5
 21
79.0
 31
0.0
  0
LINE
  5
123
100
AcDbEntity
100
AcDbLine
  8
hidden
 62
256
370
-1
  6
BYLAYER
 10
64.5
 20
144.0
 30
0.0
 11
64.5
 21
82.0
 31
0.0
  0
LINE
  5
124
100
AcDbEntity
100
AcDbLine
  8
hidden
 62
256
370
-1
  6
BYLAYER
 10
64.5
 20
82.0
 30
0.0
 11
35.5
 21
82.0
 31
0.0
  0
LINE
  5
125
100
AcDbEntity
100
AcDbLine
  8
hidden
 62
256
370
-1
  6
BYLAYER
 10
35.5
 20
82.0
 30
0.0
 11
35.5
 21
144.0
 31
0.0
  0
LINE
  5
126
100
AcDbEntity
100
AcDbLine
  8
hidden
 62
256
370
-1
  6
BYLAYER
 10
54.0
 20
82.0
 30
0.0
 11
54.0
 21
102.0
 31
0.0
  0
LINE
  5
127
100
AcDbEntity
100
AcDbLine
  8
hidden
 62
256
370
-1
  6
BYLAYER
 10
54.0
 20
102.0
 30
0.0
 11
46.0
 21
102.0
 31
0.0
  0
LINE
  5
128
100
AcDbEntity
100
AcDbLine
  8
hidden
 62
256
370
-1
  6
BYLAYER
 10
46.0
 20
102.0
 30
0.0
 11
46.0
 21
82.0
 31
0.0
  0
LINE
  5
129
100
AcDbEntity
100
AcDbLine
  8
hidden
 62
256
370
-1
  6
BYLAYER
 10
48.0
 20
102.0
 30
0.0
 11
48.0
 21
79.0
 31
0.0
  0
LINE
  5
12A
100
AcDbEntity
100
AcDbLine
  8
hidden
 62
256
370
-1
  6
BYLAYER
 10
52.0
 20
79.0
 30
0.0
 11
52.0
 21
102.0
 31
0.0
  0
LINE
  5
12B
100
AcDbEntity
100
AcDbLine
  8
hidden
 62
256
370
-1
  6
BYLAYER
 10
36.0
 20
82.0
 30
0.0
 11
36.0
 21
133.0
 31
0.0
  0
LINE
  5
12C
100
AcDbEntity
100
AcDbLine
  8
hidden
 62
256
370
-1
  6
DOT
 10
36.0
 20
133.0
 30
0.0
 11
35.5
 21
133.0
 31
0.0
  0
LINE
  5
12D
100
AcDbEntity
100
AcDbLine
  8
hidden
 62
256
370
-1
  6
BYLAYER
 10
64.5
 20
133.0
 30
0.0
 11
64.0
 21
133.0
 31
0.0
  0
LINE
  5
12E
100
AcDbEntity
100
AcDbLine
  8
hidden
 62
256
370
-1
  6
BYLAYER
 10
64.0
 20
133.0
 30
0.0
 11
64.0
 21
82.0
 31
0.0
  0
LINE
  5
12F
100
AcDbEntity
100
AcDbLine
  8
hidden
 62
256
370
-1
  6
BYLAYER
 10
35.5
 20
139.5
 30
0.0
 11
35.5
 21
141.5
 31
0.0
  0
LINE
  5
130
100
AcDbEntity
100
AcDbLine
  8
hidden
 62
256
370
-1
  6
BYLAYER
 10
35.5
 20
141.5
 30
0.0
 11
35.5
 21
139.5
 31
0.0
  0
LINE
  5
131
100
AcDbEntity
100
AcDbLine
  8
hidden
 62
256
370
-1
  6
BYLAYER
 10
35.5
 20
138.5
 30
0.0
 11
37.5
 21
138.5
 31
0.0
  0
LINE
  5
132
100
AcDbEntity
100
AcDbLine
  8
hidden
 62
256
370
-1
  6
BYLAYER
 10
37.5
 20
138.5
 30
0.0
 11
37.5
 21
81.0
 31
0.0
  0
LINE
  5
133
100
AcDbEntity
100
AcDbLine
  8
hidden
 62
256
370
-1
  6
BYLAYER
 10
67.5
 20
139.0
 30
0.0
 11
62.6984250992002927
 21
139.0
 31
0.0
  0
LINE
  5
134
100
AcDbEntity
100
AcDbLine
  8
hidden
 62
256
370
-1
  6
BYLAYER
 10
62.6984250992002927
 20
126.0
 30
0.0
 11
67.5
 21
126.0
 31
0.0
  0
LINE
  5
135
100
AcDbEntity
100
AcDbLine
  8
hidden
 62
256
370
-1
  6
BYLAYER
 10
36.0
 20
79.0
 30
0.0
 11
37.0
 21
79.5
 31
0.0
  0
LINE
  5
136
100
AcDbEntity
100
AcDbLine
  8
hidden
 62
256
370
-1
  6
BYLAYER
 10
37.0
 20
79.5
 30
0.0
 11
63.0
 21
79.5
 31
0.0
  0
LINE
  5
137
100
AcDbEntity
100
AcDbLine
  8
hidden
 62
256
370
-1
  6
BYLAYER
 10
63.0
 20
79.5
 30
0.0
 11
64.0
 21
79.0
 31
0.0
  0
LEADER
  5
138
  8
dim
 62
256
370
-1
  6
BYLAYER
100
AcDbEntity
100
AcDbLeader
  3
Standard
 71
0
 72
0
 73
3
 74
0
 75
0
 40
1.0
 41
10.0
 76
2
 10
32.5
 20
79.0
 10
32.5
 20
49.0
  0
LEADER
  5
139
  8
dim
 62
256
370
-1
  6
BYLAYER
100
AcDbEntity
100
AcDbLeader
  3
Standard
 71
0
 72
0
 73
3
 74
0
 75
0
 40
1.0
 41
10.0
 76
2
 10
35.5
 20
49.0
 10
35.5
 20
82.0
  0
LEADER
  5
13A
  8
dim
 62
256
370
-1
  6
BYLAYER
100
AcDbEntity
100
AcDbLeader
  3
Standard
 71
0
 72
0
 73
3
 74
0
 75
0
 40
1.0
 41
10.0
 76
2
 10
36.0
 20
82.0
 10
36.0
 20
49.0
  0
LEADER
  5
13B
  8
dim
 62
256
370
-1
  6
BYLAYER
100
AcDbEntity
100
AcDbLeader
  3
Standard
 71
0
 72
0
 73
3
 74
0
 75
0
 40
1.0
 41
10.0
 76
2
 10
37.0
 20
48.9999999999999929
 10
37.0
 20
79.5
  0
LEADER
  5
13C
  8
dim
 62
256
370
-1
  6
BYLAYER
100
AcDbEntity
100
AcDbLeader
  3
Standard
 71
0
 72
0
 73
3
 74
0
 75
0
 40
1.0
 41
10.0
 76
2
 10
37.5
 20
82.0
 10
37.5
 20
49.0
  0
LEADER
  5
13D
  8
dim
 62
256
370
-1
  6
BYLAYER
100
AcDbEntity
100
AcDbLeader
  3
Standard
 71
0
 72
0
 73
3
 74
0
 75
0
 40
1.0
 41
10.0
 76
2
 10
46.0
 20
82.0
 10
46.0
 20
50.0
  0
LEADER
  5
13E
  8
dim
 62
256
370
-1
  6
BYLAYER
100
AcDbEntity
100
AcDbLeader
  3
Standard
 71
0
 72
0
 73
3
 74
0
 75
0
 40
1.0
 41
10.0
 76
2
 10
48.0
 20
50.0
 10
48.0
 20
79.0
  0
LEADER
  5
13F
  8
dim
 62
256
370
-1
  6
BYLAYER
100
AcDbEntity
100
AcDbLeader
  3
Standard
 71
0
 72
0
 73
3
 74
0
 75
0
 40
1.0
 41
10.0
 76
2
 10
52.0
 20
79.0
 10
52.0
 20
50.0
  0
LEADER
  5
140
  8
dim
 62
256
370
-1
  6
BYLAYER
100
AcDbEntity
100
AcDbLeader
  3
Standard
 71
0
 72
0
 73
3
 74
0
 75
0
 40
1.0
 41
10.0
 76
2
 10
54.0
 20
82.0
 10
54.0
 20
50.0
  0
LEADER
  5
141
  8
dim
 62
256
370
-1
  6
BYLAYER
100
AcDbEntity
100
AcDbLeader
  3
Standard
 71
0
 72
0
 73
3
 74
0
 75
0
 40
1.0
 41
10.0
 76
6
 10
67.5
 20
79.0
 10
67.5
 20
49.0
 10
64.5
 20
49.0
 10
64.5
 20
82.0
 10
64.0
 20
82.0
 10
64.0
 20
49.0
  0
LEADER
  5
142
  8
dim
 62
256
370
-1
  6
BYLAYER
100
AcDbEntity
100
AcDbLeader
  3
Standard
 71
0
 72
0
 73
3
 74
0
 75
0
 40
1.0
 41
10.0
 76
2
 10
63.0
 20
49.0
 10
63.0
 20
79.5
  0
LINE
  5
143
100
AcDbEntity
100
AcDbLine
  8
hidden
 62
256
370
-1
  6
BYLAYER
 10
62.6984250992002927
 20
126.0
 30
0.0
 11
62.6984250992002927
 21
139.0
 31
0.0
  0
LEADER
  5
144
  8
dim
 62
256
370
-1
  6
BYLAYER
100
AcDbEntity
100
AcDbLeader
  3
Standard
 71
0
 72
0
 73
3
 74
0
 75
0
 40
1.0
 41
10.0
 76
3
 10
62.6984250992002927
 20
56.0
 10
62.6984250992002927
 20
126.0
 10
62.6984250992002927
 20
56.0
  0
LEADER
  5
145
  8
hidden
 62
256
370
-1
  6
BYLAYER
100
AcDbEntity
100
AcDbLeader
  3
Standard
 71
0
 72
0
 73
3
 74
0
 75
0
 40
1.0
 41
10.0
 76
2
 10
96.0390149323454381
 20
26.0
 10
96.0390149323454381
 20
96.0
  0
LINE
  5
146
100
AcDbEntity
100
AcDbLine
  8
hidden
 62
256
370
-1
  6
BYLAYER
 10
66.0390149323454381
 20
126.0
 30
0.0
 11
66.0390149323454381
 21
139.0
 31
0.0
  0
LINE
  5
147
100
AcDbEntity
100
AcDbLine
  8
0
 62
256
370
-1
  6
BYLAYER
 10
80.0
 20
66.5
 30
0.0
 11
80.0
 21
31.5
 31
0.0
  0
LINE
  5
148
100
AcDbEntity
100
AcDbLine
  8
0
 62
256
370
-1
  6
BYLAYER
 10
80.0
 20
31.5
 30
0.0
 11
145.0
 21
31.5
 31
0.0
  0
LINE
  5
149
100
AcDbEntity
100
AcDbLine
  8
0
 62
256
370
-1
  6
BYLAYER
 10
145.0
 20
31.5
 30
0.0
 11
145.0
 21
66.5
 31
0.0
  0
LINE
  5
14A
100
AcDbEntity
100
AcDbLine
  8
0
 62
256
370
-1
  6
BYLAYER
 10
145.0
 20
66.5
 30
0.0
 11
80.0
 21
66.5
 31
0.0
  0
LINE
  5
14B
100
AcDbEntity
100
AcDbLine
  8
hidden
 62
256
370
-1
  6
BYLAYER
 10
83.0
 20
63.5
 30
0.0
 11
83.0
 21
34.5
 31
0.0
  0
LINE
  5
14C
100
AcDbEntity
100
AcDbLine
  8
hidden
 62
256
370
-1
  6
BYLAYER
 10
83.0
 20
38.0
 30
0.0
 11
145.0
 21
37.5
 31
0.0
  0
LINE
  5
14D
100
AcDbEntity
100
AcDbLine
  8
hidden
 62
256
370
-1
  6
BYLAYER
 10
83.0
 20
63.5
 30
0.0
 11
145.0
 21
63.5
 31
0.0
  0
LINE
  5
14E
100
AcDbEntity
100
AcDbLine
  8
hidden
 62
256
370
-1
  6
BYLAYER
 10
80.0
 20
52.0
 30
0.0
 11
103.0
 21
52.0
 31
0.0
  0
LINE
  5
14F
100
AcDbEntity
100
AcDbLine
  8
hidden
 62
256
370
-1
  6
BYLAYER
 10
103.0
 20
46.0
 30
0.0
 11
80.0
 21
46.0
 31
0.0
  0
LINE
  5
150
100
AcDbEntity
100
AcDbLine
  8
hidden
 62
256
370
-1
  6
BYLAYER
 10
83.0
 20
44.0
 30
0.0
 11
103.0
 21
44.0
 31
0.0
  0
LINE
  5
151
100
AcDbEntity
100
AcDbLine
  8
hidden
 62
256
370
-1
  6
BYLAYER
 10
103.0
 20
44.0
 30
0.0
 11
103.0
 21
54.0
 31
0.0
  0
LINE
  5
152
100
AcDbEntity
100
AcDbLine
  8
hidden
 62
256
370
-1
  6
BYLAYER
 10
103.0
 20
54.0
 30
0.0
 11
83.0
 21
54.0
 31
0.0
  0
LEADER
  5
153
  8
dim
 62
256
370
-1
  6
BYLAYER
100
AcDbEntity
100
AcDbLeader
  3
Standard
 71
0
 72
0
 73
3
 74
0
 75
0
 40
1.0
 41
10.0
 76
2
 10
66.0390149323454381
 20
56.0
 10
133.5
 20
56.0
  0
LEADER
  5
154
  8
dim
 62
256
370
-1
  6
BYLAYER
100
AcDbEntity
100
AcDbLeader
  3
Standard
 71
0
 72
0
 73
3
 74
0
 75
0
 40
1.0
 41
10.0
 76
2
 10
66.0390149323454381
 20
42.0
 10
133.5
 20
42.0
  0
LEADER
  5
155
  8
dim
 62
256
370
-1
  6
BYLAYER
100
AcDbEntity
100
AcDbLeader
  3
Standard
 71
0
 72
0
 73
3
 74
0
 75
0
 40
1.0
 41
10.0
 76
2
 10
50.0
 20
63.0
 10
83.0
 20
63.0
  0
LEADER
  5
156
  8
dim
 62
256
370
-1
  6
BYLAYER
100
AcDbEntity
100
AcDbLeader
  3
Standard
 71
0
 72
0
 73
3
 74
0
 75
0
 40
1.0
 41
10.0
 76
2
 10
50.0
 20
62.0
 10
80.5
 20
62.0
  0
LEADER
  5
157
  8
dim
 62
256
370
-1
  6
BYLAYER
100
AcDbEntity
100
AcDbLeader
  3
Standard
 71
0
 72
0
 73
3
 74
0
 75
0
 40
1.0
 41
10.0
 76
2
 10
50.0
 20
36.0
 10
80.5
 20
36.0
  0
LEADER
  5
158
  8
dim
 62
256
370
-1
  6
BYLAYER
100
AcDbEntity
100
AcDbLeader
  3
Standard
 71
0
 72
0
 73
3
 74
0
 75
0
 40
1.0
 41
10.0
 76
2
 10
53.0
 20
35.0
 10
83.0
 20
35.0
  0
LINE
  5
159
100
AcDbEntity
100
AcDbLine
  8
hidden
 62
256
370
-1
  6
BYLAYER
 10
80.0
 20
35.0
 30
0.0
 11
80.5
 21
36.0
 31
0.0
  0
LINE
  5
15A
100
AcDbEntity
100
AcDbLine
  8
hidden
 62
256
370
-1
  6
BYLAYER
 10
80.5
 20
36.0
 30
0.0
 11
80.5
 21
62.0
 31
0.0
  0
LINE
  5
15B
100
AcDbEntity
100
AcDbLine
  8
hidden
 62
256
370
-1
  6
BYLAYER
 10
80.5
 20
62.0
 30
0.0
 11
80.0
 21
63.0
 31
0.0
  0
LEADER
  5
15C
  8
dim
 62
256
370
-1
  6
BYLAYER
100
AcDbEntity
100
AcDbLeader
  3
Standard
 71
0
 72
0
 73
3
 74
0
 75
0
 40
1.0
 41
10.0
 76
2
 10
50.0
 20
34.5
 10
83.0
 20
34.5
  0
LEADER
  5
15D
  8
hidden
 62
256
370
-1
  6
BYLAYER
100
AcDbEntity
100
AcDbLeader
  3
Standard
 71
0
 72
0
 73
3
 74
0
 75
0
 40
1.0
 41
10.0
 76
2
 10
50.0
 20
63.5
 10
83.0
 20
63.5
  0
LINE
  5
15E
100
AcDbEntity
100
AcDbLine
  8
hidden
 62
256
370
-1
  6
BYLAYER
 10
83.0
 20
63.0
 30
0.0
 11
134.0
 21
63.0
 31
0.0
  0
LINE
  5
15F
100
AcDbEntity
100
AcDbLine
  8
hidden
 62
256
370
-1
  6
BYLAYER
 10
134.0
 20
63.5
 30
0.0
 11
134.0
 21
63.0
 31
0.0
  0
LINE
  5
160
100
AcDbEntity
100
AcDbLine
  8
hidden
 62
256
370
-1
  6
BYLAYER
 10
83.0
 20
35.0
 30
0.0
 11
134.0
 21
35.0
 31
0.0
  0
LINE
  5
161
100
AcDbEntity
100
AcDbLine
  8
hidden
 62
256
370
-1
  6
BYLAYER
 10
134.0
 20
35.0
 30
0.0
 11
134.0
 21
34.5
 31
0.0
  0
LINE
  5
162
100
AcDbEntity
100
AcDbLine
  8
dim
 62
256
370
-1
  6
BYLAYER
 10
83.0
 20
34.5
 30
0.0
 11
145.0
 21
34.5
 31
0.0
  0
CIRCLE
  5
163
100
AcDbEntity
100
AcDbCircle
  8
hidden
 62
256
370
-1
  6
BYLAYER
 10
133.5
 20
49.0
 30
0.0
 40
7.0000000000000009
  0
LEADER
  5
164
  8
dim
 62
256
370
-1
  6
BYLAYER
100
AcDbEntity
100
AcDbLeader
  3
Standard
 71
0
 72
0
 73
3
 74
0
 75
0
 40
1.0
 41
10.0
 76
2
 10
38.467437405329207
 20
55.5
 10
83.0
 20
55.4999999999999929
  0
LEADER
  5
165
  8
dim
 62
256
370
-1
  6
BYLAYER
100
AcDbEntity
100
AcDbLeader
  3
Standard
 71
0
 72
0
 73
3
 74
0
 75
0
 40
1.0
 41
10.0
 76
2
 10
38.467437405329207
 20
42.5
 10
83.0
 20
42.5
  0
ARC
  5
166
100
AcDbEntity
  8
hidden
 62
256
370
-1
  6
BYLAYER
100
AcDbCircle
 10
133.0
 20
49.0000000000000071
 30
0.0
 40
6.4999999999999929
100
AcDbArc
 50
270.0
 51
90.0
  0
LINE
  5
167
100
AcDbEntity
100
AcDbLine
  8
hidden
 62
256
370
-1
  6
BYLAYER
 10
83.0
 20
42.5
 30
0.0
 11
133.0
 21
42.5000000000000142
 31
0.0
  0
LINE
  5
168
100
AcDbEntity
100
AcDbLine
  8
hidden
 62
256
370
-1
  6
BYLAYER
 10
83.0
 20
55.4999999999999929
 30
0.0
 11
133.0
 21
55.5
 31
0.0
  0
DIMENSION
  5
169
100
AcDbEntity
  8
dim
 62
256
370
-1
  6
BYLAYER
100
AcDbDimension
 10
48.0
 20
42.5
 30
0.0
 11
52.5694444444444429
 21
44.375
 31
0.0
 70
0
 71
8
 72
2
 41
1.0
 42
0.0
  1

  3
Standard
100
AcDbAlignedDimension
 13
50.0
 23
46.0
 33
0.0
 14
48.0
 24
48.0
 34
0.0
 50
0.0
100
AcDbRotatedDimension
1001
ACAD
1000
DSTYLE
1002
{
1070
144
1040
1
1002
}
  0
DIMENSION
  5
16A
100
AcDbEntity
  8
dim
 62
256
370
-1
  6
BYLAYER
100
AcDbDimension
 10
54.0
 20
55.5
 30
0.0
 11
56.7083333333333357
 21
57.375
 31
0.0
 70
0
 71
8
 72
2
 41
1.0
 42
0.0
  1

  3
Standard
100
AcDbAlignedDimension
 13
50.0
 23
52.0
 33
0.0
 14
54.0
 24
51.0
 34
0.0
 50
0.0
100
AcDbRotatedDimension
1001
ACAD
1000
DSTYLE
1002
{
1070
144
1040
1
1002
}
  0
DIMENSION
  5
16B
100
AcDbEntity
  8
dim
 62
256
370
-1
  6
BYLAYER
100
AcDbDimension
 10
37.0
 20
38.0
 30
0.0
 11
43.5
 21
39.875
 31
0.0
 70
0
 71
8
 72
2
 41
1.0
 42
0.0
  1

  3
Standard
100
AcDbAlignedDimension
 13
50.0
 23
42.5
 33
0.0
 14
37.0
 24
49.0
 34
0.0
 50
0.0
100
AcDbRotatedDimension
1001
ACAD
1000
DSTYLE
1002
{
1070
144
1040
1
1002
}
  0
DIMENSION
  5
16C
100
AcDbEntity
  8
dim
 62
256
370
-1
  6
BYLAYER
100
AcDbDimension
 10
63.0
 20
38.0
 30
0.0
 11
57.0
 21
39.875
 31
0.0
 70
0
 71
8
 72
2
 41
1.0
 42
0.0
  1

  3
Standard
100
AcDbAlignedDimension
 13
50.0000000000000071
 23
38.0
 33
0.0
 14
64.0
 24
49.0
 34
0.0
 50
0.0
100
AcDbRotatedDimension
1001
ACAD
1000
DSTYLE
1002
{
1070
144
1040
1
1002
}
  0
DIMENSION
  5
16D
100
AcDbEntity
  8
dim
 62
256
370
-1
  6
BYLAYER
100
AcDbDimension
 10
49.0
 20
48.0
 30
0.0
 11
42.75
 21
49.875
 31
0.0
 70
0
 71
8
 72
2
 41
1.0
 42
0.0
  1

  3
Standard
100
AcDbAlignedDimension
 13
35.5
 23
49.0
 33
0.0
 14
50.0
 24
49.0
 34
0.0
 50
0.0
100
AcDbRotatedDimension
1001
ACAD
1000
DSTYLE
1002
{
1070
144
1040
1
1002
}
  0
DIMENSION
  5
16E
100
AcDbEntity
  8
dim
 62
256
370
-1
  6
BYLAYER
100
AcDbDimension
 10
50.0000000000000071
 20
48.0
 30
0.0
 11
58.75
 21
49.875
 31
0.0
 70
0
 71
8
 72
2
 41
1.0
 42
0.0
  1

  3
Standard
100
AcDbAlignedDimension
 13
50.0
 23
49.0
 33
0.0
 14
67.5
 24
49.0
 34
0.0
 50
0.0
100
AcDbRotatedDimension
1001
ACAD
1000
DSTYLE
1002
{
1070
144
1040
1
1002
}
  0
DIMENSION
  5
16F
100
AcDbEntity
  8
hidden
 62
256
370
-1
  6
BYLAYER
100
AcDbDimension
 10
78.0
 20
49.0
 30
0.0
 11
76.125
 21
54.5694444444444429
 31
0.0
 70
0
 71
8
 72
2
 41
1.0
 42
0.0
  1

  3
Standard
100
AcDbAlignedDimension
 13
80.0
 23
52.0
 33
0.0
 14
80.0
 24
49.0
 34
0.0
 50
90.0
100
AcDbRotatedDimension
1001
ACAD
1000
DSTYLE
1002
{
1070
144
1040
1
1002
}
  0
DIMENSION
  5
170
100
AcDbEntity
  8
hidden
 62
256
370
-1
  6
BYLAYER
100
AcDbDimension
 10
73.0
 20
44.0
 30
0.0
 11
71.125
 21
46.5
 31
0.0
 70
0
 71
8
 72
2
 41
1.0
 42
0.0
  1

  3
Standard
100
AcDbAlignedDimension
 13
78.0
 23
49.0
 33
0.0
 14
83.0
 24
44.0
 34
0.0
 50
90.0
100
AcDbRotatedDimension
1001
ACAD
1000
DSTYLE
1002
{
1070
144
1040
1
1002
}
  0
DIMENSION
  5
171
100
AcDbEntity
  8
hidden
 62
256
370
-1
  6
BYLAYER
100
AcDbDimension
 10
133.0
 20
49.0000000000000071
 30
0.0
 11
142.064716097710857
 21
42.5869343317386608
 31
0.0
 70
4
 71
8
 72
2
 41
1.0
 42
0.0
  1

  3
Standard
100
AcDbRadialDimension
 15
137.5961940777125392
 25
44.4038059222874466
 35
0.0
 40
0.0
1001
ACAD
1000
DSTYLE
1002
{
1070
144
1040
1
1002
}
  0
DIMENSION
  5
172
100
AcDbEntity
  8
hidden
 62
256
370
-1
  6
BYLAYER
100
AcDbDimension
 10
133.5
 20
49.0
 30
0.0
 11
139.2615685147519855
 21
59.0645547289382762
 31
0.0
 70
4
 71
8
 72
2
 41
1.0
 42
0.0
  1

  3
Standard
100
AcDbRadialDimension
 15
137.9141483756612558
 25
54.432798000813861
 35
0.0
 40
0.0
1001
ACAD
1000
DSTYLE
1002
{
1070
144
1040
1
1002
}
  0
DIMENSION
  5
173
100
AcDbEntity
  8
hidden
 62
256
370
-1
  6
BYLAYER
100
AcDbDimension
 10
106.0
 20
73.0
 30
0.0
 11
112.5
 21
74.875
 31
0.0
 70
0
 71
8
 72
2
 41
1.0
 42
0.0
  1

  3
Standard
100
AcDbAlignedDimension
 13
80.0
 23
68.4457947499141284
 33
0.0
 14
145.0
 24
66.5
 34
0.0
 50
0.0
100
AcDbRotatedDimension
1001
ACAD
1000
DSTYLE
1002
{
1070
144
1040
1
1002
}
  0
DIMENSION
  5
174
100
AcDbEntity
  8
hidden
 62
256
370
-1
  6
BYLAYER
100
AcDbDimension
 10
145.0
 20
69.0
 30
0.0
 11
139.25
 21
70.875
 31
0.0
 70
0
 71
8
 72
2
 41
1.0
 42
0.0
  1

  3
Standard
100
AcDbAlignedDimension
 13
133.5
 23
49.0
 33
0.0
 14
145.0
 24
66.5
 34
0.0
 50
0.0
100
AcDbRotatedDimension
1001
ACAD
1000
DSTYLE
1002
{
1070
144
1040
1
1002
}
  0
DIMENSION
  5
175
100
AcDbEntity
  8
hidden
 62
256
370
-1
  6
BYLAYER
100
AcDbDimension
 10
83.0
 20
69.0
 30
0.0
 11
85.5694444444444429
 21
70.875
 31
0.0
 70
0
 71
8
 72
2
 41
1.0
 42
0.0
  1

  3
Standard
100
AcDbAlignedDimension
 13
80.0
 23
66.5
 33
0.0
 14
83.0
 24
63.5
 34
0.0
 50
0.0
100
AcDbRotatedDimension
1001
ACAD
1000
DSTYLE
1002
{
1070
144
1040
1
1002
}
  0
DIMENSION
  5
176
100
AcDbEntity
  8
hidden
 62
256
370
-1
  6
BYLAYER
100
AcDbDimension
 10
103.0
 20
69.0
 30
0.0
 11
93.0
 21
70.875
 31
0.0
 70
0
 71
8
 72
2
 41
1.0
 42
0.0
  1

  3
Standard
100
AcDbAlignedDimension
 13
83.0
 23
69.0
 33
0.0
 14
103.0
 24
57.0
 34
0.0
 50
0.0
100
AcDbRotatedDimension
1001
ACAD
1000
DSTYLE
1002
{
1070
144
1040
1
1002
}
  0
DIMENSION
  5
177
100
AcDbEntity
  8
hidden
 62
256
370
-1
  6
BYLAYER
100
AcDbDimension
 10
134.0
 20
28.0
 30
0.0
 11
107.0
 21
29.875
 31
0.0
 70
0
 71
8
 72
2
 41
1.0
 42
0.0
  1

  3
Standard
100
AcDbAlignedDimension
 13
80.0
 23
31.5
 33
0.0
 14
134.0
 24
35.0
 34
0.0
 50
0.0
100
AcDbRotatedDimension
1001
ACAD
1000
DSTYLE
1002
{
1070
144
1040
1
1002
}
  0
IMAGE
  5
178
  8
0
 62
256
370
-1
  6
BYLAYER
100
AcDbEntity
100
AcDbRasterImage
 90
0
 10
144.0
 20
255.0
 30
0.0
 11
0.2666666666666667
 21
0.0
 31
0.0
 12
0.0
 22
0.2666666666666667
 32
0.0
 13
0.0
 23
0.0
340
179
 70
15
280
0
281
50
282
50
283
0
  0
LINE
  5
17A
100
AcDbEntity
100
AcDbLine
  8
0
 62
256
370
-1
  6
BYLAYER
 10
142.0
 20
255.0
 30
0.0
 11
142.0
 21
287.0
 31
0.0
  0
LINE
  5
17B
100
AcDbEntity
100
AcDbLine
  8
0
 62
256
370
-1
  6
BYLAYER
 10
96.0
 20
255.0
 30
0.0
 11
96.0
 21
287.0
 31
0.0
  0
LINE
  5
17C
100
AcDbEntity
100
AcDbLine
  8
0
 62
256
370
-1
  6
BYLAYER
 10
96.0
 20
287.0
 30
0.0
 11
200.0
 21
287.0
 31
0.0
  0
LINE
  5
17D
100
AcDbEntity
100
AcDbLine
  8
0
 62
256
370
-1
  6
BYLAYER
 10
200.0
 20
287.0
 30
0.0
 11
200.0
 21
255.0
 31
0.0
  0
MTEXT
  5
17E
100
AcDbEntity
100
AcDbMText
  8
0
 62
256
370
-1
  6
BYLAYER
 10
119.0
 20
260.0
 30
0.0
 40
1.0
 41
0.0
 71
5
 72
1
  1
\H2.5;DATE: \fLiberation Sans|b1|i0|c0|p0;2014 Jul 27
  7
textstyle0
 50
0.0
 73
2
 44
1.0
  0
MTEXT
  5
17F
100
AcDbEntity
100
AcDbMText
  8
0
 62
256
370
-1
  6
BYLAYER
 10
119.0
 20
272.0
 30
0.0
 40
1.0
 41
0.0
 71
5
 72
1
  1
\H2;BY: \fLiberation Sans|b1|i0|c0|p0;James An\~\fLiberation Sans|b0|i0|c0|p0;TO: \fLiberation Sans|b1|i0|c0|p0;Ed Sears
  7
textstyle1
 50
0.0
 73
2
 44
1.0
  0
MTEXT
  5
180
100
AcDbEntity
100
AcDbMText
  8
0
 62
256
370
-1
  6
BYLAYER
 10
119.0
 20
281.0
 30
0.0
 40
1.0
 41
0.0
 71
5
 72
1
  1
\fLiberation Sans|b1|i0|c0|p0;\H3;Spice Jar Templates
  7
textstyle2
 50
0.0
 73
2
 44
1.0
  0
MTEXT
  5
181
100
AcDbEntity
100
AcDbMText
  8
0
 62
256
370
-1
  6
BYLAYER
 10
119.0
 20
266.0
 30
0.0
 40
1.0
 41
0.0
 71
5
 72
1
  1
\H2;SCALE / UNITS: \fLiberation Sans|b1|i0|c0|p0;1:1 / mm
  7
textstyle3
 50
0.0
 73
2
 44
1.0
  0
LINE
  5
182
100
AcDbEntity
100
AcDbLine
  8
0
 62
256
370
-1
  6
BYLAYER
 10
96.0
 20
255.0
 30
0.0
 11
200.0
 21
255.0
 31
0.0
  0
LINE
  5
183
100
AcDbEntity
100
AcDbLine
  8
0
 62
256
370
-1
  6
BYLAYER
 10
96.0
 20
276.5059613260901301
 30
0.0
 11
142.0
 21
276.5059613260901301
 31
0.0
  0
LINE
  5
184
100
AcDbEntity
100
AcDbLine
  8
0
 62
256
370
-1
  6
BYLAYER
 10
188.16226358839981
 20
142.8826686114877305
 30
0.0
 11
188.16226358839981
 21
142.8826686114877305
 31
0.0
  0
LINE
  5
185
100
AcDbEntity
100
AcDbLine
  8
0
 62
256
370
50
  6
BYLAYER
 10
200.0
 20
287.0
 30
0.0
 11
200.0
 21
10.0
 31
0.0
  0
LINE
  5
186
100
AcDbEntity
100
AcDbLine
  8
0
 62
256
370
50
  6
BYLAYER
 10
200.0
 20
10.0
 30
0.0
 11
10.0
 21
10.0
 31
0.0
  0
LINE
  5
187
100
AcDbEntity
100
AcDbLine
  8
0
 62
256
370
50
  6
BYLAYER
 10
10.0
 20
10.0
 30
0.0
 11
10.0
 21
287.0
 31
0.0
  0
LINE
  5
188
100
AcDbEntity
100
AcDbLine
  8
0
 62
256
370
50
  6
BYLAYER
 10
199.9999999999999716
 20
286.9999999999999432
 30
0.0
 11
10.0
 21
287.0
 31
0.0
  0
INSERT
  5
189
100
AcDbEntity
100
AcDbBlockReference
  8
0
 62
256
370
-1
  6
BYLAYER
  2
Lid 2
 10
135.1622635883997816
 20
197.8826686114877305
 30
0.0
  0
DIMENSION
  5
18A
100
AcDbEntity
  8
dim
 62
256
370
-1
  6
BYLAYER
100
AcDbDimension
 10
50.0
 20
258.2031107089652551
 30
0.0
 11
48.125
 21
266.9895547512638245
 31
0.0
 70
4
 71
8
 72
2
 41
1.0
 42
0.0
  1

  3
Standard
100
AcDbRadialDimension
 15
50.0
 25
262.4062214179305101
 35
0.0
 40
0.0
1001
ACAD
1000
DSTYLE
1002
{
1070
144
1040
1
1002
}
  0
DIMENSION
  5
18B
100
AcDbEntity
  8
dim
 62
256
370
-1
  6
BYLAYER
100
AcDbDimension
 10
47.9744421419814699
 20
261.8859431780898603
 30
0.0
 11
49.9999999999999929
 21
274.3857062274466898
 31
0.0
 70
2
 71
8
 72
2
 41
1.0
 42
0.0
  1

  3
Standard
100
AcDb2LineAngularDimension
 13
52.0255578580184945
 23
261.8859431780898035
 33
0.0
 14
50.0
 24
258.2031107089652551
 34
0.0
 15
50.0
 25
258.2031107089652551
 35
0.0
 16
50.0
 26
272.5107062274466898
 36
0.0
  0
ENDSEC
  0
SECTION
  2
OBJECTS
  0
DICTIONARY
  5
C
100
AcDbDictionary
280
0
281
1
  3
ACAD_GROUP
350
D
  3
ACAD_LAYOUT
350
1A
  3
ACAD_MLINESTYLE
350
17
  3
ACAD_PLOTSETTINGS
350
19
  3
ACAD_PLOTSTYLENAME
350
E
  3
AcDbVariableDictionary
350
18C
  3
QCAD_OBJECTS
350
18D
  0
DICTIONARY
  5
D
100
AcDbDictionary
280
0
281
1
  0
ACDBDICTIONARYWDFLT
  5
E
100
AcDbDictionary
281
1
  3
Normal
350
F
100
AcDbDictionaryWithDefault
340
F
  0
ACDBPLACEHOLDER
  5
F
  0
DICTIONARY
  5
17
100
AcDbDictionary
280
0
281
1
  3
Standard
350
18
  0
MLINESTYLE
  5
18
100
AcDbMlineStyle
  2
STANDARD
 70
0
  3

 62
256
 51
90.0
 52
90.0
 71
2
 49
0.5
 62
256
  6
BYLAYER
 49
-0.5
 62
256
  6
BYLAYER
  0
DICTIONARY
  5
19
100
AcDbDictionary
280
0
281
1
  0
DICTIONARY
  5
1A
100
AcDbDictionary
281
1
  3
Layout1
350
1E
  3
Layout2
350
26
  3
Model
350
22
  0
LAYOUT
  5
1E
100
AcDbPlotSettings
  1

  2
none_device
  4

  6

 40
0.0
 41
0.0
 42
0.0
 43
0.0
 44
0.0
 45
0.0
 46
0.0
 47
0.0
 48
0.0
 49
0.0
140
0.0
141
0.0
142
1.0
143
1.0
 70
688
 72
0
 73
0
 74
5
  7

 75
16
147
1.0
148
0.0
149
0.0
100
AcDbLayout
  1
Layout1
 70
1
 71
1
 10
0.0
 20
0.0
 11
420.0
 21
297.0
 12
0.0
 22
0.0
 32
0.0
 14
100000000000000000000.0
 24
100000000000000000000.0
 34
100000000000000000000.0
 15
-100000000000000000000.0
 25
-100000000000000000000.0
 35
-100000000000000000000.0
146
0.0
 13
0.0
 23
0.0
 33
0.0
 16
1.0
 26
0.0
 36
0.0
 17
0.0
 27
1.0
 37
0.0
 76
0
330
1B
  0
LAYOUT
  5
22
100
AcDbPlotSettings
  1

  2
none_device
  4

  6

 40
0.0
 41
0.0
 42
0.0
 43
0.0
 44
0.0
 45
0.0
 46
0.0
 47
0.0
 48
0.0
 49
0.0
140
0.0
141
0.0
142
1.0
143
1.0
 70
1712
 72
0
 73
0
 74
0
  7

 75
0
147
1.0
148
0.0
149
0.0
100
AcDbLayout
  1
Model
 70
1
 71
0
 10
0.0
 20
0.0
 11
12.0
 21
9.0
 12
0.0
 22
0.0
 32
0.0
 14
0.0
 24
0.0
 34
0.0
 15
0.0
 25
0.0
 35
0.0
146
0.0
 13
0.0
 23
0.0
 33
0.0
 16
1.0
 26
0.0
 36
0.0
 17
0.0
 27
1.0
 37
0.0
 76
0
330
1F
  0
LAYOUT
  5
26
100
AcDbPlotSettings
  1

  2
none_device
  4

  6

 40
0.0
 41
0.0
 42
0.0
 43
0.0
 44
0.0
 45
0.0
 46
0.0
 47
0.0
 48
0.0
 49
0.0
140
0.0
141
0.0
142
1.0
143
1.0
 70
688
 72
0
 73
0
 74
5
  7

 75
16
147
1.0
148
0.0
149
0.0
100
AcDbLayout
  1
Layout2
 70
1
 71
2
 10
0.0
 20
0.0
 11
12.0
 21
9.0
 12
0.0
 22
0.0
 32
0.0
 14
0.0
 24
0.0
 34
0.0
 15
0.0
 25
0.0
 35
0.0
146
0.0
 13
0.0
 23
0.0
 33
0.0
 16
1.0
 26
0.0
 36
0.0
 17
0.0
 27
1.0
 37
0.0
 76
0
330
23
  0
DICTIONARY
  5
18C
100
AcDbDictionary
281
1
  3
DIMASSOC
350
18F
  3
HIDETEXT
350
18E
  0
DICTIONARYVAR
  5
18E
100
DictionaryVariables
280
0
  1
2
  0
DICTIONARYVAR
  5
18F
100
DictionaryVariables
280
0
  1
1
  0
DICTIONARY
  5
18D
100
AcDbDictionary
281
1
  3
DimensionSettings/AngularFormat
350
190
  3
DimensionSettings/AngularPrecision
350
191
  3
DimensionSettings/DimensionFont
350
192
  3
DimensionSettings/KeepProportions
350
193
  3
DimensionSettings/LinearFormat
350
194
  3
DimensionSettings/LinearPrecision
350
195
  3
Grid/DisplayGrid00
350
196
  3
Grid/DisplayGrid01
350
197
  3
Grid/DisplayGrid02
350
198
  3
Grid/DisplayGrid03
350
199
  3
Grid/GridSpacingX00
350
19A
  3
Grid/GridSpacingX01
350
19B
  3
Grid/GridSpacingX02
350
19C
  3
Grid/GridSpacingX03
350
19D
  3
Grid/GridSpacingY00
350
19E
  3
Grid/GridSpacingY01
350
19F
  3
Grid/GridSpacingY02
350
1A0
  3
Grid/GridSpacingY03
350
1A1
  3
Grid/IsometricGrid00
350
1A2
  3
Grid/IsometricGrid01
350
1A3
  3
Grid/IsometricGrid02
350
1A4
  3
Grid/IsometricGrid03
350
1A5
  3
Grid/IsometricProjection00
350
1A6
  3
Grid/IsometricProjection01
350
1A7
  3
Grid/IsometricProjection02
350
1A8
  3
Grid/IsometricProjection03
350
1A9
  3
Grid/MetaGridSpacingX00
350
1AA
  3
Grid/MetaGridSpacingX01
350
1AB
  3
Grid/MetaGridSpacingX02
350
1AC
  3
Grid/MetaGridSpacingX03
350
1AD
  3
Grid/MetaGridSpacingY00
350
1AE
  3
Grid/MetaGridSpacingY01
350
1AF
  3
Grid/MetaGridSpacingY02
350
1B0
  3
Grid/MetaGridSpacingY03
350
1B1
  3
MultiPageSettings/Columns
350
1B2
  3
MultiPageSettings/GlueMarginsBottom
350
1B3
  3
MultiPageSettings/GlueMarginsLeft
350
1B4
  3
MultiPageSettings/GlueMarginsRight
350
1B5
  3
MultiPageSettings/GlueMarginsTop
350
1B6
  3
MultiPageSettings/PrintCropMarks
350
1B7
  3
MultiPageSettings/Rows
350
1B8
  3
PageSettings/OffsetX
350
1B9
  3
PageSettings/OffsetY
350
1BA
  3
PageSettings/PageOrientation
350
1BB
  3
PageSettings/PaperHeight
350
1BC
  3
PageSettings/PaperSizeName
350
1BD
  3
PageSettings/PaperWidth
350
1BE
  3
PageSettings/Scale
350
1BF
  3
PageSettings/ShowPaperBorders
350
1C0
  3
PointDisplaySettings/Button0
350
1C1
  3
PointDisplaySettings/Mode
350
1C2
  3
PointDisplaySettings/Size
350
1C3
  3
UnitSettings/PaperUnit
350
1C4
  3
Viewport/ViewportList.data
350
1C5
  0
XRECORD
  5
190
330
18D
100
AcDbXrecord
280
1
 90
0
  0
XRECORD
  5
191
330
18D
100
AcDbXrecord
280
1
 90
2
  0
XRECORD
  5
192
330
18D
100
AcDbXrecord
280
1
1000
DejaVu Sans
  0
XRECORD
  5
193
330
18D
100
AcDbXrecord
280
1
290
1
  0
XRECORD
  5
194
330
18D
100
AcDbXrecord
280
1
 90
2
  0
XRECORD
  5
195
330
18D
100
AcDbXrecord
280
1
 90
1
  0
XRECORD
  5
196
330
18D
100
AcDbXrecord
280
1
290
1
  0
XRECORD
  5
197
330
18D
100
AcDbXrecord
280
1
290
1
  0
XRECORD
  5
198
330
18D
100
AcDbXrecord
280
1
290
1
  0
XRECORD
  5
199
330
18D
100
AcDbXrecord
280
1
290
1
  0
XRECORD
  5
19A
330
18D
100
AcDbXrecord
280
1
1000
auto
  0
XRECORD
  5
19B
330
18D
100
AcDbXrecord
280
1
1000
auto
  0
XRECORD
  5
19C
330
18D
100
AcDbXrecord
280
1
1000
auto
  0
XRECORD
  5
19D
330
18D
100
AcDbXrecord
280
1
1000
auto
  0
XRECORD
  5
19E
330
18D
100
AcDbXrecord
280
1
1000
auto
  0
XRECORD
  5
19F
330
18D
100
AcDbXrecord
280
1
1000
auto
  0
XRECORD
  5
1A0
330
18D
100
AcDbXrecord
280
1
1000
auto
  0
XRECORD
  5
1A1
330
18D
100
AcDbXrecord
280
1
1000
auto
  0
XRECORD
  5
1A2
330
18D
100
AcDbXrecord
280
1
290
0
  0
XRECORD
  5
1A3
330
18D
100
AcDbXrecord
280
1
290
0
  0
XRECORD
  5
1A4
330
18D
100
AcDbXrecord
280
1
290
0
  0
XRECORD
  5
1A5
330
18D
100
AcDbXrecord
280
1
290
0
  0
XRECORD
  5
1A6
330
18D
100
AcDbXrecord
280
1
 90
0
  0
XRECORD
  5
1A7
330
18D
100
AcDbXrecord
280
1
 90
0
  0
XRECORD
  5
1A8
330
18D
100
AcDbXrecord
280
1
 90
0
  0
XRECORD
  5
1A9
330
18D
100
AcDbXrecord
280
1
 90
0
  0
XRECORD
  5
1AA
330
18D
100
AcDbXrecord
280
1
1000
auto
  0
XRECORD
  5
1AB
330
18D
100
AcDbXrecord
280
1
1000
auto
  0
XRECORD
  5
1AC
330
18D
100
AcDbXrecord
280
1
1000
auto
  0
XRECORD
  5
1AD
330
18D
100
AcDbXrecord
280
1
1000
auto
  0
XRECORD
  5
1AE
330
18D
100
AcDbXrecord
280
1
1000
auto
  0
XRECORD
  5
1AF
330
18D
100
AcDbXrecord
280
1
1000
auto
  0
XRECORD
  5
1B0
330
18D
100
AcDbXrecord
280
1
1000
auto
  0
XRECORD
  5
1B1
330
18D
100
AcDbXrecord
280
1
1000
auto
  0
XRECORD
  5
1B2
330
18D
100
AcDbXrecord
280
1
 90
1
  0
XRECORD
  5
1B3
330
18D
100
AcDbXrecord
280
1
 40
10.0
  0
XRECORD
  5
1B4
330
18D
100
AcDbXrecord
280
1
 40
10.0
  0
XRECORD
  5
1B5
330
18D
100
AcDbXrecord
280
1
 40
10.0
  0
XRECORD
  5
1B6
330
18D
100
AcDbXrecord
280
1
 40
10.0
  0
XRECORD
  5
1B7
330
18D
100
AcDbXrecord
280
1
290
0
  0
XRECORD
  5
1B8
330
18D
100
AcDbXrecord
280
1
 90
1
  0
XRECORD
  5
1B9
330
18D
100
AcDbXrecord
280
1
 40
0.0
  0
XRECORD
  5
1BA
330
18D
100
AcDbXrecord
280
1
 40
0.0
  0
XRECORD
  5
1BB
330
18D
100
AcDbXrecord
280
1
1000
Portrait
  0
XRECORD
  5
1BC
330
18D
100
AcDbXrecord
280
1
 40
297.0
  0
XRECORD
  5
1BD
330
18D
100
AcDbXrecord
280
1
1000
ISO A4
  0
XRECORD
  5
1BE
330
18D
100
AcDbXrecord
280
1
 40
210.0
  0
XRECORD
  5
1BF
330
18D
100
AcDbXrecord
280
1
1000
1:1
  0
XRECORD
  5
1C0
330
18D
100
AcDbXrecord
280
1
290
1
  0
XRECORD
  5
1C1
330
18D
100
AcDbXrecord
280
1
1000
Button0
  0
XRECORD
  5
1C2
330
18D
100
AcDbXrecord
280
1
1000
0
  0
XRECORD
  5
1C3
330
18D
100
AcDbXrecord
280
1
1000
0
  0
XRECORD
  5
1C4
330
18D
100
AcDbXrecord
280
1
 90
4
  0
XRECORD
  5
1C5
330
18D
100
AcDbXrecord
280
1
1000
00_Single.ui
  0
IMAGEDEF
  5
179
100
AcDbRasterImageDef
 90
0
  1
/tmp/branding.png
 10
0.0
 20
0.0
 11
1.0
 21
1.0
280
1
281
0
  0
ENDSEC
  0
EOF
